<?xml version="1.0" encoding="UTF-8"?><svg id="Layer_1" xmlns="http://www.w3.org/2000/svg" xmlns:xlink="http://www.w3.org/1999/xlink" viewBox="0 0 393.41 390.7"><defs><style>.cls-1{fill:none;}.cls-2{clip-path:url(#clippath);}.cls-3{fill:#f2f2f2;}.cls-4{fill:#fff;}.cls-5{fill:#3e4bb3;}.cls-6{fill:#5e96f8;}.cls-7{clip-path:url(#clippath-1);}</style><clipPath id="clippath"><rect class="cls-1" width="393.41" height="390.7"/></clipPath><clipPath id="clippath-1"><rect class="cls-1" width="393.41" height="390.7"/></clipPath></defs><g id="Group_2"><g class="cls-2"><g id="Group_1"><path id="Path_1" class="cls-5" d="m124.5,71.74C124.5,32.12,156.62,0,196.24,0s71.74,32.12,71.74,71.74-32.12,71.74-71.74,71.74c-39.62,0-71.74-32.12-71.74-71.74h0"/><path id="Path_2" class="cls-5" d="m249.94,159.17c0-39.62,32.12-71.74,71.74-71.74s71.74,32.12,71.74,71.74-32.12,71.74-71.74,71.74h-.01c-39.62,0-71.74-32.12-71.74-71.74"/><path id="Path_3" class="cls-5" d="m.41,161.89c0-39.62,32.12-71.74,71.74-71.74s71.74,32.12,71.74,71.74-32.12,71.74-71.74,71.74h0C32.53,233.63.41,201.51.41,161.89"/><path id="Path_4" class="cls-5" d="m53.81,307.53c0-39.62,32.12-71.74,71.74-71.74,39.62,0,71.74,32.12,71.74,71.74,0,39.62-32.12,71.74-71.74,71.74h0c-39.62,0-71.74-32.12-71.74-71.74"/><path id="Path_5" class="cls-5" d="m209.84,306.14c0-39.62,32.12-71.74,71.74-71.74,39.62,0,71.74,32.12,71.74,71.74s-32.12,71.74-71.74,71.74h0c-39.62,0-71.74-32.12-71.74-71.74"/><path id="Path_6" class="cls-4" d="m171.3,136.07l23.58-47.85,22.65,48.78-46.33-.68"/><path id="Path_7" class="cls-4" d="m251.89,159.93l54.67,6.38-39.88,39.18-15.07-45.58"/><path id="Path_8" class="cls-4" d="m174.42,268.46l-48.23,27.92,8.56-55.22,39.91,27.16"/><path id="Path_9" class="cls-4" d="m253.84,241.4l6.22,56.74-47.46-30.41,41.21-26.63"/><path id="Path_10" class="cls-4" d="m121.84,201.8l-38.8-36.61,53.28-7.3-14.28,44.09"/><path id="Path_11" class="cls-6" d="m122.29,201.92c0-39.62,32.12-71.74,71.74-71.74s71.74,32.12,71.74,71.74-32.12,71.74-71.74,71.74-71.74-32.12-71.74-71.74h0"/></g></g></g><g id="Group_4"><g class="cls-7"><g id="Group_3"><path id="Path_12" class="cls-6" d="m165.38,140.41l-12.95,3.02h0l5.49-3.92c2.1-1.7,3.24-4.31,3.07-7l.99-40.62c.28-11.68-3.1-23.15-9.68-32.81l-26.28-38.56c-.18-.29-.1-.67.19-.86.18-.12.41-.13.6-.04l43.69,22.62c15.69,8.13,34.29,8.41,50.23.77l44.58-21.37c.31-.14.68,0,.82.32.09.2.06.42-.05.6l-27.4,37.78c-6.86,9.45-10.59,20.82-10.65,32.51l-.21,40.63c-.01,2.62,1.3,5.06,3.48,6.5l6.13,4.65h0l-14.23-3.38c-2.47-.41-4.59-2-5.67-4.26l-18.35-38.35c-1.14-2.38-3.99-3.39-6.37-2.25-.94.45-1.71,1.2-2.19,2.13l-19.45,37.8c-1.15,2.23-3.31,3.75-5.79,4.09"/><path id="Path_13" class="cls-6" d="m180.97,268.34l12.44,5.31h0l-6.78.02c-2.7.05-5.21,1.41-6.72,3.64l-24.58,32.35c-7.06,9.3-11.03,20.59-11.35,32.27l-1.24,46.64c-.02.34-.32.6-.66.58-.21-.01-.4-.13-.51-.32l-22.19-43.9c-7.97-15.77-22.88-26.89-40.27-30.02l-48.66-8.77c-.34-.07-.55-.4-.48-.74.05-.21.19-.38.39-.45l44.33-14.59c11.1-3.65,20.77-10.69,27.65-20.13l23.94-32.83c1.54-2.12,1.91-4.87.98-7.31l-1.98-6.48h0l9.29,10.2c1.77,1.78,2.55,4.3,2.11,6.77l-7.57,41.83c-.47,2.6,1.25,5.08,3.85,5.55,1.03.19,2.09.03,3.02-.44l37.9-19.28c2.23-1.14,4.88-1.11,7.09.07"/><path id="Path_14" class="cls-6" d="m243.47,156.66l-6.04-12.01h0l4.83,3.9c2.03,1.66,4.75,2.18,7.25,1.39l38.73-12.3c11.13-3.54,20.88-10.47,27.87-19.84l27.9-37.41c.21-.27.61-.31.87-.1.17.13.25.34.23.55l-7.15,48.67c-2.57,17.48,3.21,35.16,15.62,47.74l34.73,35.19c.23.25.22.64-.03.88-.16.15-.38.2-.59.14l-44.65-13.6c-11.18-3.41-23.14-3.22-34.2.53l-38.48,13.04c-2.49.84-5.57,2.27-6.22,4.81l-1.98,6.58h0l-.65-13.23c-.04-2.71.96-5.33,2.78-7.34l29.69-29.23c1.88-1.85,1.9-4.87.05-6.75-.73-.74-1.69-1.23-2.72-1.38l-42.08-6.08c-2.48-.36-4.63-1.91-5.75-4.14"/><path id="Path_15" class="cls-6" d="m126.98,209.48l-1.68,14.14-2.22-6.92c-.63-2.54-2.5-4.6-4.97-5.46l-38.36-13.4c-11.03-3.85-22.99-4.15-34.2-.85L.76,210.18c-.33.09-.67-.1-.77-.43-.06-.21,0-.44.15-.6l34.99-34.64c12.55-12.44,18.53-30.06,16.14-47.57l-6.68-48.99c-.03-.34.22-.65.56-.68.21-.02.42.07.55.23l27.55,37.68c6.9,9.43,16.57,16.46,27.67,20.1l38.61,12.66c2.59,1.01,5.5.75,7.86-.72l5.02-3.78-6.9,11.27c-1.15,2.23-3.31,3.76-5.79,4.09l-42.13,5.68c-2.61.35-4.45,2.76-4.1,5.37.14,1.04.61,2,1.35,2.74l30.01,30.11c1.77,1.78,2.56,4.3,2.11,6.77"/><path id="Path_16" class="cls-6" d="m253.78,235.66l8.35-10.83h0l-2.73,7.95c-1.01,2.42,1.08,4.57,2.55,6.74l22.86,33.58c6.57,9.66,16.01,17.01,26.98,21.03l43.82,16.03c.32.13.47.49.34.81-.08.2-.26.34-.47.38l-48.69,7.06c-17.49,2.54-32.77,13.14-41.28,28.63l-23.79,43.35c-.18.3-.56.39-.85.22-.19-.11-.3-.31-.3-.53l.27-46.67c.07-11.68-3.53-23.09-10.29-32.62l-23.5-33.15c-1.45-2.29-3.92-3.73-6.62-3.86l-7.03-.13h0l12.89-5.01c2.25-1.11,4.89-1.05,7.09.16l37.24,20.5c2.31,1.27,5.22.43,6.49-1.88.5-.91.69-1.97.54-3l-6.22-42.06c-.37-2.48.5-4.98,2.33-6.7"/><path id="Path_17" class="cls-3" d="m99.12,354.11c-4.97,6.68-14.41,8.06-21.09,3.09-6.68-4.97-8.06-14.41-3.09-21.09,4.97-6.68,14.41-8.06,21.09-3.09h0c6.68,4.97,8.06,14.41,3.09,21.09"/><path id="Path_18" class="cls-3" d="m359.79,133.69c7.91-2.6,16.42,1.71,19.02,9.62,2.6,7.91-1.71,16.42-9.62,19.02-7.91,2.6-16.42-1.71-19.02-9.62-2.6-7.91,1.71-16.42,9.62-19.02,0,0,0,0,0,0"/><path id="Path_19" class="cls-3" d="m20.15,158.07c-7.88-2.67-12.11-11.23-9.44-19.11,2.67-7.88,11.23-12.11,19.11-9.44,7.88,2.67,12.11,11.22,9.44,19.11-2.67,7.88-11.22,12.11-19.11,9.44,0,0,0,0,0,0"/><path id="Path_20" class="cls-3" d="m309.06,340.54c4.75,6.84,3.06,16.23-3.78,20.98-6.84,4.75-16.23,3.06-20.98-3.78-4.75-6.84-3.06-16.23,3.78-20.98,0,0,0,0,0,0,6.84-4.75,16.23-3.06,20.98,3.78"/><path id="Path_21" class="cls-3" d="m191.82,5.61c7.91-2.6,16.42,1.71,19.02,9.62,2.6,7.91-1.71,16.42-9.62,19.02-7.91,2.6-16.42-1.71-19.02-9.62-2.6-7.91,1.71-16.42,9.62-19.02,0,0,0,0,0,0"/></g></g></g></svg>