<?xml version="1.0" encoding="UTF-8"?><svg id="Layer_1" xmlns="http://www.w3.org/2000/svg" viewBox="0 0 494 320.07"><defs><style>.cls-1{fill:#eff6fe;}.cls-2{fill:#cde3fa;}.cls-3{fill:#dbdbdb;}.cls-4{fill:#adadad;}.cls-5{fill:#434343;}.cls-6{fill:#5c9bf1;}</style></defs><path id="Path_420" class="cls-6" d="M0,143.93V9.06C.03,4.2,3.99,.28,8.85,.3c0,0,0,0,0,0H145.15c4.86-.02,8.83,3.9,8.85,8.76V143.93c-.03,4.86-3.99,8.79-8.85,8.76H8.85C3.99,152.71,.03,148.79,0,143.93c0,0,0,0,0,0"/><path id="Path_421" class="cls-2" d="M170,143.62V8.76C170.03,3.9,173.99-.03,178.85,0c0,0,0,0,0,0h136.29c4.86-.02,8.83,3.9,8.85,8.76V143.62c-.03,4.86-3.99,8.79-8.85,8.76H178.85c-4.86,.03-8.83-3.9-8.85-8.76,0,0,0,0,0,0"/><path id="Path_422" class="cls-1" d="M340,143.93V9.06c.03-4.86,3.99-8.79,8.85-8.76,0,0,0,0,0,0h136.29c4.86-.02,8.83,3.9,8.85,8.76V143.93c-.03,4.86-3.99,8.79-8.85,8.76h-136.29c-4.86,.03-8.83-3.9-8.85-8.76,0,0,0,0,0,0"/><path id="Path_469" class="cls-5" d="M0,311.31V176.45c.03-4.86,3.99-8.79,8.85-8.76,0,0,0,0,0,0H145.15c4.86-.02,8.83,3.9,8.85,8.76v134.86c-.03,4.86-3.99,8.79-8.85,8.76H8.85C3.99,320.1,.03,316.17,0,311.31c0,0,0,0,0,0"/><path id="Path_470" class="cls-4" d="M170,311.01V176.15c.03-4.86,3.99-8.79,8.85-8.76,0,0,0,0,0,0h136.29c4.86-.02,8.83,3.9,8.85,8.76v134.86c-.03,4.86-3.99,8.79-8.85,8.76H178.85c-4.86,.03-8.83-3.9-8.85-8.76,0,0,0,0,0,0"/><path id="Path_471" class="cls-3" d="M340,311.31V176.45c.03-4.86,3.99-8.79,8.85-8.76,0,0,0,0,0,0h136.29c4.86-.02,8.83,3.9,8.85,8.76v134.86c-.03,4.86-3.99,8.79-8.85,8.76h-136.29c-4.86,.03-8.83-3.9-8.85-8.76,0,0,0,0,0,0"/></svg>