<?xml version="1.0" encoding="UTF-8"?><svg id="Layer_1" xmlns="http://www.w3.org/2000/svg" xmlns:xlink="http://www.w3.org/1999/xlink" viewBox="0 0 356.1 106.24"><defs><style>.cls-1,.cls-2,.cls-3,.cls-4,.cls-5,.cls-6,.cls-7{fill:none;}.cls-8{fill:#d9d9d9;stroke:#d9d9d9;}.cls-8,.cls-9,.cls-10{stroke-width:1.15px;}.cls-8,.cls-9,.cls-10,.cls-2,.cls-3,.cls-4,.cls-5,.cls-6,.cls-7{stroke-miterlimit:10;}.cls-9{stroke:#f0efef;}.cls-9,.cls-11{fill:#f0efef;}.cls-10,.cls-12{fill:#fff;}.cls-10,.cls-2,.cls-5,.cls-7{stroke:#fff;}.cls-13{clip-path:url(#clippath);}.cls-14{fill:#e4e4e4;}.cls-15{fill:#adadad;}.cls-16{clip-path:url(#clippath-1);}.cls-17{clip-path:url(#clippath-4);}.cls-18{clip-path:url(#clippath-3);}.cls-19{clip-path:url(#clippath-2);}.cls-20{clip-path:url(#clippath-7);}.cls-21{clip-path:url(#clippath-8);}.cls-22{clip-path:url(#clippath-6);}.cls-23{clip-path:url(#clippath-5);}.cls-24{clip-path:url(#clippath-9);}.cls-25{clip-path:url(#clippath-10);}.cls-2,.cls-3{stroke-linecap:round;}.cls-2,.cls-3,.cls-4,.cls-5{stroke-width:2px;}.cls-3,.cls-4,.cls-6{stroke:#e4e4e4;}</style><clipPath id="clippath"><rect class="cls-1" x="161.81" width="35.19" height="35.19"/></clipPath><clipPath id="clippath-1"><rect class="cls-1" x="174.54" y="9.98" width="12.69" height="15.23"/></clipPath><clipPath id="clippath-2"><rect class="cls-1" x="323.48" width="19.78" height="33.73"/></clipPath><clipPath id="clippath-3"><rect class="cls-1" x="323.48" width="19.78" height="33.73"/></clipPath><clipPath id="clippath-4"><rect class="cls-1" x="78.68" width="35.6" height="30.69"/></clipPath><clipPath id="clippath-5"><rect class="cls-1" x="89.73" y="11.05" width="13.5" height="13.5"/></clipPath><clipPath id="clippath-6"><rect class="cls-1" x="108.15" y="8.04" width="3.43" height="3.43"/></clipPath><clipPath id="clippath-7"><rect class="cls-1" x="161.81" width="35.19" height="35.19"/></clipPath><clipPath id="clippath-8"><rect class="cls-1" x="174.54" y="9.98" width="12.69" height="15.23"/></clipPath><clipPath id="clippath-9"><rect class="cls-1" x="323.48" width="19.78" height="33.73"/></clipPath><clipPath id="clippath-10"><rect class="cls-1" x="323.48" width="19.78" height="33.73"/></clipPath></defs><g id="Group_212"><g class="cls-13"><g id="Group_211"><path id="Rectangle_136" class="cls-8" d="m176.96.73h4.89c7.98,0,14.43,6.47,14.43,14.43h0v4.89c0,7.98-6.47,14.43-14.43,14.43h-4.89c-7.98,0-14.43-6.47-14.43-14.43v-4.89c0-7.98,6.47-14.43,14.43-14.43h0Z"/></g></g></g><g id="Group_214"><g class="cls-16"><g id="Group_213"><path id="Path_316" class="cls-10" d="m176.12,10.73l10.15,6.94c.17.1.23.33.13.51-.03.06-.09.1-.15.14l-10.15,6.17c-.32.2-.77,0-.77-.33v-13.11c0-.33.47-.53.8-.31Z"/></g></g></g><g id="Audio_Button"><g id="Group_226"><g class="cls-19"><g id="Group_225"><path id="Path_337" class="cls-2" d="m324.75,32.34l8.51.06,8.74.06"/><line id="Line_93" class="cls-5" x1="333.47" y1="23.15" x2="333.49" y2="31.92"/><path id="Path_338" class="cls-12" d="m333.53,19.86h0c-2.97,0-5.37-2.41-5.37-5.37V6.01c0-2.97,2.41-5.38,5.38-5.38s5.38,2.41,5.38,5.38v8.48c0,2.97-2.41,5.37-5.37,5.37h0"/><path id="Path_339" class="cls-7" d="m333.53,19.86h0c-2.97,0-5.37-2.41-5.37-5.37V6.01c0-2.97,2.41-5.38,5.38-5.38s5.38,2.41,5.38,5.38v8.48c0,2.97-2.41,5.38-5.37,5.38h-.02Z"/><path id="Path_340" class="cls-2" d="m341.84,14.63c0,4.61-3.74,8.35-8.35,8.35h0"/><path id="Path_341" class="cls-2" d="m333.49,22.98c-4.61,0-8.35-3.74-8.35-8.35h0"/></g></g></g><g id="Group_224"><g class="cls-18"><g id="Group_223"><path id="Path_332" class="cls-3" d="m324.75,32.34l8.51.06,8.74.06"/><line id="Line_92" class="cls-4" x1="333.47" y1="23.15" x2="333.49" y2="31.92"/><path id="Path_333" class="cls-14" d="m333.53,19.86h0c-2.97,0-5.37-2.41-5.37-5.37V6.01c0-2.97,2.41-5.38,5.38-5.38s5.38,2.41,5.38,5.38v8.48c0,2.97-2.41,5.37-5.37,5.37h0"/><path id="Path_334" class="cls-6" d="m333.53,19.86h0c-2.97,0-5.37-2.41-5.37-5.37V6.01c0-2.97,2.41-5.38,5.38-5.38s5.38,2.41,5.38,5.38v8.48c0,2.97-2.41,5.38-5.37,5.38h-.02Z"/><path id="Path_335" class="cls-3" d="m341.84,14.63c0,4.61-3.74,8.35-8.35,8.35h0"/><path id="Path_336" class="cls-3" d="m333.49,22.98c-4.61,0-8.35-3.74-8.35-8.35h0"/></g></g></g></g><g class="cls-17"><g id="Group_215-2"><path id="Path_317-4" class="cls-15" d="m88.18,4.04l1.17-2.42c.44-.94,1.38-1.54,2.41-1.55h9.33c1.04,0,1.98.61,2.42,1.55l1.17,2.42c.37.78,1.15,1.29,2.01,1.3h5.51c1.11.02,1.99.94,1.97,2.05v20.93c.02,1.11-.86,2.02-1.97,2.05h-31.55c-1.11-.02-1.98-.94-1.96-2.05V7.38c-.02-1.11.86-2.02,1.96-2.05h5.51c.87,0,1.65-.51,2.02-1.3"/></g></g><g class="cls-23"><g id="Group_217-4"><path id="Path_318-4" class="cls-11" d="m103.23,17.8c0,3.73-3.02,6.75-6.75,6.75s-6.75-3.02-6.75-6.75,3.02-6.75,6.75-6.75,6.75,3.02,6.75,6.75"/></g></g><g class="cls-22"><g id="Group_219-4"><path id="Path_319-4" class="cls-11" d="m111.58,9.76c0,.95-.77,1.72-1.72,1.72s-1.72-.77-1.72-1.72.77-1.72,1.72-1.72,1.72.77,1.72,1.72h0"/></g></g><g class="cls-20"><g id="Group_211-2"><g><path id="Rectangle_136-2" class="cls-15" d="m176.96.73h4.89c7.98,0,14.43,6.47,14.43,14.43h0v4.89c0,7.98-6.47,14.43-14.43,14.43h-4.89c-7.98,0-14.43-6.47-14.43-14.43v-4.89c0-7.98,6.47-14.43,14.43-14.43h0Z"/><path class="cls-15" d="m181.85,35.05h-4.89c-8.28,0-15.01-6.73-15.01-15.01v-4.89c0-8.28,6.73-15.01,15.01-15.01h4.89c8.27,0,15.01,6.73,15.01,15.01v4.89c0,8.28-6.73,15.01-15.01,15.01Zm-4.89-33.75c-7.64,0-13.85,6.22-13.85,13.85v4.89c0,7.64,6.22,13.85,13.85,13.85h4.89c7.64,0,13.85-6.22,13.85-13.85v-4.89c0-7.64-6.21-13.85-13.85-13.85h-4.89Z"/></g></g></g><g id="Group_214-2"><g class="cls-21"><g id="Group_213-2"><path id="Path_316-2" class="cls-9" d="m176.12,10.73l10.15,6.94c.17.1.23.33.13.51-.03.06-.09.1-.15.14l-10.15,6.17c-.32.2-.77,0-.77-.33v-13.11c0-.33.47-.53.8-.31Z"/></g></g></g><g id="Audio_Button-2"><g id="Group_226-2"><g class="cls-24"><g id="Group_225-2"><path id="Path_337-2" class="cls-2" d="m324.75,32.34l8.51.06,8.74.06"/><line id="Line_93-2" class="cls-5" x1="333.47" y1="23.15" x2="333.49" y2="31.92"/><path id="Path_338-2" class="cls-12" d="m333.53,19.86h0c-2.97,0-5.37-2.41-5.37-5.37V6.01c0-2.97,2.41-5.38,5.38-5.38s5.38,2.41,5.38,5.38v8.48c0,2.97-2.41,5.37-5.37,5.37h0"/><path id="Path_339-2" class="cls-7" d="m333.53,19.86h0c-2.97,0-5.37-2.41-5.37-5.37V6.01c0-2.97,2.41-5.38,5.38-5.38s5.38,2.41,5.38,5.38v8.48c0,2.97-2.41,5.38-5.37,5.38h-.02Z"/><path id="Path_340-2" class="cls-2" d="m341.84,14.63c0,4.61-3.74,8.35-8.35,8.35h0"/><path id="Path_341-2" class="cls-2" d="m333.49,22.98c-4.61,0-8.35-3.74-8.35-8.35h0"/></g></g></g><g id="Group_224-2"><g class="cls-25"><g id="Group_223-2"><path class="cls-15" d="m342,33.46h0l-17.25-.12c-.55,0-1-.45-.99-1.01,0-.55.45-.99,1-.99h0l17.25.12c.55,0,1,.45.99,1.01,0,.55-.45.99-1,.99Z"/><rect class="cls-15" x="332.48" y="23.15" width="2" height="8.77" transform="translate(-.06 .74) rotate(-.13)"/><path id="Path_333-2" class="cls-15" d="m333.53,19.86h0c-2.97,0-5.37-2.41-5.37-5.37V6.01c0-2.97,2.41-5.38,5.38-5.38s5.38,2.41,5.38,5.38v8.48c0,2.97-2.41,5.37-5.37,5.37h0"/><path class="cls-15" d="m333.55,20.37h-.14c-3.18-.08-5.75-2.68-5.75-5.88V6.01c0-3.24,2.64-5.88,5.88-5.88s5.88,2.64,5.88,5.88v8.48c0,3.24-2.63,5.88-5.87,5.88Zm-.01-19.24c-2.69,0-4.88,2.19-4.88,4.88v8.48c0,2.69,2.18,4.87,4.87,4.87h.14c2.63-.05,4.75-2.22,4.75-4.87V6.01c0-2.69-2.19-4.88-4.88-4.88Z"/><path class="cls-15" d="m333.49,23.98c-.55,0-1-.45-1-1s.45-1,1-1c4.05,0,7.35-3.3,7.35-7.35,0-.55.45-1,1-1s1,.45,1,1c0,5.16-4.19,9.35-9.35,9.35Z"/><path class="cls-15" d="m333.49,23.98c-5.16,0-9.35-4.19-9.35-9.35,0-.55.45-1,1-1s1,.45,1,1c0,4.05,3.3,7.35,7.35,7.35.55,0,1,.45,1,1s-.45,1-1,1Z"/></g></g></g></g><path class="cls-15" d="m22.21,76.97h0c-.2-.14-.4-.27-.62-.4,1.93-1.91,3.03-4.52,3.03-7.25,0-5.64-4.59-10.23-10.23-10.23s-10.22,4.59-10.22,10.23c0,2.79,1.14,5.44,3.15,7.37-.14.09-.29.19-.43.28-4.31,2.93-6.88,7.84-6.88,13.13v5.89c0,1.18.48,2.71,1.55,3.49l1.17.84c2.4,1.73,5.37,2.78,9.09,3.21l.68.08c.78.09,1.58.13,2.36.13,1.3,0,2.63-.12,3.91-.37,2.1-.4,5.15-1.13,7.53-2.84l1.07-.77c1.13-.81,1.73-2.3,1.73-4.31v-5.35c0-5.29-2.57-10.2-6.88-13.13Zm-7.83-15.32c4.23,0,7.67,3.44,7.67,7.67,0,2.43-1.18,4.74-3.15,6.19-.64.46-1.34.83-2.08,1.07-1.48.51-3.19.54-4.77.03-.74-.23-1.45-.58-2.09-1.03-2.04-1.45-3.25-3.79-3.25-6.27,0-4.23,3.44-7.67,7.66-7.67Zm-6.07,17.43c.41-.27.83-.52,1.26-.74,3,1.62,6.82,1.58,9.78-.08.46.22.94.49,1.42.82,3.61,2.46,5.76,6.58,5.76,11.02v5.35c0,1.09-.25,1.93-.67,2.23l-1.07.77c-1.97,1.42-4.66,2.05-6.51,2.4-1.81.35-3.66.42-5.5.2l-.68-.08c-3.27-.38-5.86-1.27-7.89-2.74l-1.17-.83c-.23-.17-.49-.79-.49-1.42v-5.89c0-4.43,2.15-8.56,5.75-11.02Z"/><g><ellipse class="cls-15" cx="263.12" cy="67.31" rx="7.42" ry="7"/><path class="cls-15" d="m263.6,78.24c-.83,0-1.67-.09-2.49-.27l-.1-.02c-1.79-.4-3.62-1.12-5.42-2.12l-4.11-2.46-5.62-3.76c-.65-.51-.98-1.2-.98-1.94s.33-1.43.91-1.9l7.51-5.63c1.02-.81,3.49-2.1,4.53-2.56,3.51-1.55,7.48-1.44,10.89.3.73.37,3.27,1.8,3.99,2.32l7.69,5.65c.52.38.83.97.83,1.61s-.28,1.25-.79,1.64l-6.26,4.43-4.44,3.04c-1.95,1.1-4.07,1.66-6.16,1.66h.02Zm-.63-19.73c-1.47,0-2.94.31-4.33.92-1.1.49-3.31,1.67-4.11,2.31l-7.51,5.63c-.12.09-.14.24-.14.31s.02.22.16.33l5.51,3.68,4.04,2.42c1.61.9,3.25,1.55,4.85,1.9,2.48.54,5.03.14,7.25-1.12l4.35-2.99,5.74-4.06c.23-.16.23-.51,0-.67l-7.26-5.34c-.56-.41-2.97-1.77-3.72-2.15-1.53-.78-3.19-1.17-4.85-1.17h.02Zm10.66,14.21h0Z"/></g><g><path class="cls-15" d="m201.7,99.94l-14.72-19.2-.02-.02c.11-.09.21-.19.31-.29,2.5-2.51,3.88-5.85,3.88-9.4,0-7.34-5.98-13.32-13.32-13.32s-13.33,5.98-13.33,13.32,5.98,13.33,13.33,13.33c2.31,0,4.52-.58,6.47-1.69.04.07.08.14.13.2l14.73,19.2c.32.42.79.64,1.27.64.36,0,.72-.12,1.02-.37.7-.59.82-1.66.25-2.4Zm-23.87-18.3c-5.85,0-10.61-4.76-10.61-10.61s4.76-10.6,10.61-10.6,10.6,4.76,10.6,10.6c0,2.83-1.1,5.48-3.09,7.48-2,2.02-4.67,3.13-7.51,3.13h0Z"/><path class="cls-15" d="m185.24,70.41c-.11.03-.22.04-.33.04-.61,0-1.16-.41-1.32-1.04l-.18-.73c-.36-1.51-1.46-2.71-2.94-3.2l-.7-.23c-.71-.24-1.1-1.01-.86-1.72s1-1.1,1.72-.86l.7.23c2.37.79,4.14,2.71,4.73,5.14l.18.73c.17.73-.27,1.47-1,1.64h0Z"/></g><path class="cls-15" d="m120.85,102.14l-16.72-21.2-.02-.02c.11-.09.21-.19.31-.29,2.5-2.51,3.88-5.85,3.88-9.4,0-7.34-5.98-13.32-13.32-13.32s-13.33,5.98-13.33,13.32,5.98,13.32,13.33,13.32c2.31,0,4.52-.58,6.47-1.68.04.07.08.14.13.2l16.73,21.2c.32.42.79.64,1.27.64.36,0,.72-.12,1.02-.38.7-.58.81-1.66.25-2.39h0Zm-36.48-30.91c0-5.85,4.76-10.6,10.61-10.6s10.6,4.75,10.6,10.6c0,2.82-1.1,5.48-3.09,7.48-2,2.01-4.67,3.12-7.51,3.12-5.85,0-10.61-4.75-10.61-10.6Z"/><path class="cls-15" d="m113.83,102.31l-2.74,2.1c-.38.28-.81.43-1.24.45-.69.03-1.39-.26-1.83-.84l-4.96-6.47c-.38-.47-.52-1.03-.44-1.62.08-.58.37-1.11.83-1.46l2.73-2.11s7.65,9.95,7.65,9.95Z"/><g><g><path class="cls-15" d="m266.27,88.95l-7.94,11.65c-1.59-1.28-2.59-3.18-2.59-5.3,0-3.86,3.33-7,7.42-7,1.11,0,2.16.23,3.11.65Z"/><path class="cls-15" d="m270.58,95.3c0,3.86-3.32,7-7.42,7-1.11,0-2.16-.23-3.11-.66l7.94-11.65c1.59,1.29,2.59,3.19,2.59,5.31Z"/></g><path class="cls-15" d="m280.45,93.85l-7.69-5.65c-.44-.32-1.55-.97-2.52-1.51l-1.13,1.66c.96.54,2.1,1.2,2.47,1.47l7.26,5.33c.23.17.22.52-.01.68l-5.74,4.06-4.35,2.99c-2.23,1.25-4.77,1.65-7.25,1.11-.83-.18-1.68-.44-2.52-.78l-1.14,1.69c1.08.46,2.16.81,3.22,1.05l.1.02c.82.18,1.65.27,2.49.27,2.09,0,4.2-.56,6.16-1.66l4.43-3.05,6.26-4.42c.51-.4.8-1,.79-1.65,0-.64-.31-1.23-.83-1.61h0Zm-27.86,5.82l-5.51-3.68c-.14-.11-.16-.25-.16-.33,0-.07.02-.22.14-.31l7.51-5.62c.8-.64,3.01-1.83,4.11-2.31,1.38-.62,2.86-.92,4.33-.92s2.93.3,4.31.92l1.14-1.68c-3.34-1.59-7.18-1.66-10.59-.15-1.03.46-3.51,1.74-4.53,2.55l-7.51,5.63c-.58.46-.91,1.15-.91,1.9s.34,1.43.98,1.94l5.62,3.75,4.11,2.46c.12.07.24.14.37.2l1.13-1.66c-.16-.09-.33-.18-.49-.27l-4.05-2.42h0Z"/></g><g id="Group_378"><g><path class="cls-15" d="m354.59,76.43h-3.21c-.37-2.08-1.24-4.02-2.55-5.66l2.23-2.26c.59-.6.58-1.56-.02-2.15l-1.87-1.85c-.6-.58-1.56-.57-2.15.03l-2.24,2.27c-1.74-1.27-3.76-2.14-5.88-2.51v-3.2c0-.84-.68-1.52-1.52-1.52h-2.63c-.84,0-1.52.68-1.52,1.52v3.2c-2.01.33-3.98,1.07-5.7,2.17l-2.34-2.29c-.61-.57-1.54-.56-2.14.04l-1.83,1.88c-.29.29-.45.68-.44,1.08,0,.4.16.78.46,1.08l2.13,2.06c-1.27,1.74-2.16,3.76-2.56,5.88l-3.44.04c-.83,0-1.51.69-1.51,1.52v2.65c0,.83.69,1.52,1.52,1.52h3.36c.4,2.27,1.3,4.47,2.61,6.36l-2.13,2.13c-.59.6-.58,1.56.02,2.15l1.87,1.84c.58.59,1.53.6,2.14,0l2.11-2.15c1.69,1.24,3.66,2.06,5.74,2.39v3.05c0,.4.15.78.44,1.07s.66.45,1.1.45l2.62-.02c.83,0,1.51-.67,1.51-1.52l-.02-2.91c2.34-.37,4.56-1.31,6.46-2.74l1.99,1.95c.58.59,1.53.6,2.14,0l1.87-1.9c.57-.57.59-1.52.03-2.1l-1.95-2.05c1.06-1.76,1.77-3.75,2.09-5.78h3.19c.84,0,1.52-.69,1.52-1.52v-2.64c0-.84-.68-1.52-1.51-1.52h0Zm-9.19,4.18c-.02.15-.04.3-.08.45l-.03.16c-.05.28-.12.55-.21.82-.06.2-.13.39-.21.58h0c-.07.2-.16.38-.24.57-.21.45-.46.9-.75,1.32-.17.25-.35.49-.54.72-.09.12-.2.23-.29.34-.1.12-.21.22-.3.33h0c-.21.21-.44.41-.67.61s-.46.37-.71.54h0c-.25.17-.51.33-.77.47-.13.06-.28.13-.42.2-.41.2-.83.37-1.27.51h0c-.29.1-.6.17-.9.23h0c-.61.13-1.24.2-1.88.2h0c-2.51,0-4.88-.97-6.66-2.75-1.19-1.18-1.19-1.19,0-.02-.33-.33-.63-.69-.92-1.06-.18-.24-.35-.49-.5-.75,0,0,0-.02,0-.02-.32-.53-.58-1.08-.78-1.66-.04-.14-.1-.29-.14-.44-.09-.29-.17-.58-.22-.87-.03-.16-.05-.32-.08-.47-.07-.45-.11-.92-.11-1.38s.04-.95.11-1.42c.03-.15.05-.3.08-.45.03-.13.05-.28.09-.41.17-.67.41-1.32.72-1.93.04-.09.09-.18.14-.27.09-.17.19-.34.29-.51.05-.09.12-.19.18-.28.08-.12.16-.24.26-.37.18-.24.37-.47.58-.7.09-.11.2-.22.31-.33.08-.07.08-.08,0-.02.13-.13.26-.26.4-.37,0,0,0,0,.02-.02.42-.37.87-.71,1.35-.99.13-.09.27-.16.4-.23.27-.15.53-.28.82-.39.29-.12.57-.23.86-.32.6-.19,1.21-.31,1.84-.37.31-.04.63-.05.95-.05h.03c1.29,0,2.53.27,3.65.74.28.12.55.25.82.4.4.21.78.46,1.15.73.23.18.46.37.69.58.23.2.45.42.64.64.21.22.4.45.58.69.18.25.35.5.51.76.13.21.25.44.37.66.23.45.42.93.57,1.42.04.11.07.21.1.32.02.08.04.15.06.23.06.24.11.48.14.73.06.35.1.7.12,1.06,0,.15.02.3.02.46,0,.46-.04.93-.11,1.37h-.02Z"/><path class="cls-15" d="m329.85,72.18c.42-.37.87-.7,1.35-.99-.47.28-.93.61-1.35.99Zm-.42.39s0,0,0,.02c.13-.13.27-.27.41-.39-.14.12-.27.24-.4.37h0Zm.42-.39c.42-.37.87-.7,1.35-.99-.47.28-.93.61-1.35.99Zm-.42.39s0,0,0,.02c.13-.13.27-.27.41-.39-.14.12-.27.24-.4.37h0Zm.42-.39c.42-.37.87-.7,1.35-.99-.47.28-.93.61-1.35.99Zm-.42.39s0,0,0,.02c.13-.13.27-.27.41-.39-.14.12-.27.24-.4.37h0Z"/></g><path class="cls-15" d="m326.77,77.83c-.07.46-.11.94-.11,1.42s.04.93.11,1.38c-.06-.46-.1-.93-.1-1.4s.04-.94.1-1.4Zm.45,4.58c.21.58.46,1.13.78,1.66-.31-.53-.58-1.09-.78-1.66Zm8.88,6.24h0c-2.51,0-4.88-.98-6.66-2.75q-1.19-1.18,0,.02c1.78,1.77,4.14,2.75,6.66,2.75h0c.64,0,1.27-.06,1.88-.2-.61.12-1.24.19-1.89.19h0Zm2.81-.42c.44-.13.86-.3,1.27-.51-.41.2-.83.37-1.27.51Zm3.84-2.34h0c.1-.11.21-.21.3-.33-.1.12-.21.22-.31.33Zm2.77-6.66c0-.16,0-.31-.02-.46,0,.15,0,.31,0,.46,0,.46-.04.93-.1,1.37.07-.45.11-.91.11-1.37h0Z"/></g><path class="cls-15" d="m263.93,14.34c1.03-.28,2.41-.07,3.17.41,1.51,1.03,2.06,3.1,1.51,5.85-.41,2.41-1.65,5.09-3.44,7.57h0c-3.1,4.4-6.88,7.02-9.77,7.02-.83,0-1.58-.21-2.2-.69-2.89-2-2.06-7.78,1.86-13.42,1.51-2.13,3.37-3.92,5.09-5.16v.28c-.21.96-.21,1.93,0,2.82h0c-1.1.96-2.13,2.13-3.1,3.51-3.44,4.89-3.79,9.15-2.48,10.05,1.31.9,5.16-.83,8.6-5.71h0c1.58-2.2,2.62-4.61,3.03-6.68.34-1.65.14-2.96-.55-3.44-.21-.14-.48-.21-.83-.21-.41,0-.89.14-1.45.34l.07-.28c.07-.76.28-1.51.48-2.27h0Z"/><path class="cls-15" d="m265.31,22.12c-1.03.34-2.2.21-2.96-.28-1.51-1.03-2.2-3.03-1.79-5.78.34-2.41,1.45-5.16,3.1-7.71h0c2.89-4.54,6.54-7.3,9.43-7.43.83,0,1.58.14,2.27.55,2.96,1.93,2.41,7.71-1.31,13.49-1.38,2.2-3.3,4.34-5.02,5.71l.07-.21c.14-.96.28-2.06.07-2.96h0c1.03-1.03,2-2.41,2.89-3.79,3.23-5.02,3.37-9.29,2.06-10.12s-5.16,1.1-8.4,6.13h0c-1.45,2.27-2.48,4.68-2.75,6.75-.21,1.65,0,2.96.69,3.37.21.14.55.21.83.21.41,0,.76,0,1.31-.28h0c0,.76-.21,1.58-.48,2.27v.07h-.01Z"/><path class="cls-15" d="m22.89,2.69c0,.58-.24,1.12-.63,1.5-.38.39-.92.63-1.5.63h-5.93v24.05c0,1.01-.82,1.83-1.83,1.83h-1.34c-1.01,0-1.83-.82-1.83-1.83V4.82H3.85c-1.18,0-2.13-.96-2.13-2.13,0-.59.24-1.12.62-1.51.39-.38.92-.62,1.51-.62h16.91c1.17,0,2.13.95,2.13,2.13Z"/><path class="cls-15" d="m30,13.45c0,.56-.45,1-1,1h-2.74s.01.04.01.06v10.46c0,.45-.36.8-.8.8h-.41c-.44,0-.79-.35-.79-.8v-10.52h-2.62c-.55,0-1-.44-1-1s.45-1,1-1h7.34c.55,0,1,.45,1,1h0Z"/></svg>