<?xml version="1.0" encoding="UTF-8"?><svg id="Layer_1" xmlns="http://www.w3.org/2000/svg" viewBox="0 0 301 140.52"><defs><style>.cls-1{fill:#fff;}.cls-2{fill:#cde3fa;}.cls-3{fill:#c8e3fc;}.cls-4,.cls-5{fill:#489bf8;}.cls-5{stroke:#489bf8;stroke-miterlimit:10;}</style></defs><g id="logosquare"><circle id="Ellipse_4" class="cls-4" cx="70.73" cy="70.05" r="69.84"/><path id="Path_391" class="cls-2" d="M140.04,61.37c.34,2.82,.51,5.65,.51,8.49,0,38.57-31.25,69.84-69.82,69.85-38.57,0-69.84-31.25-69.85-69.82,0,0,0-.02,0-.03,0-2.8,.16-5.59,.49-8.37"/><path id="Path_392" class="cls-5" d="M41.82,57.48l-14.21,3.52-15.81,10.06L1.68,79.29l.35,2.72,.73,3.63c1.76,8.29,5.07,16.18,9.75,23.25l3.64,3.65,14.34-17.37,15.17-15.49,17.72-10.06,11.5-5.11,14.05-3.19,4.63-1.11-51.73-2.71h0Z"/><path id="Rectangle_83" class="cls-4" d="M.94,69.85V33.1C.98,14.77,15.88-.05,34.2,0c0,0,0,0,0,0H107.4c18.32-.05,33.22,14.77,33.27,33.09,0,0,0,0,0,0v37.86"/><path id="Rectangle_83-2" class="cls-3" d="M141.09,60.98v42.09c0,20.65-14.97,37.39-33.43,37.39H34.11C15.65,140.47,.68,123.73,.68,103.07V61.78"/><path id="Path_393" class="cls-5" d="M.99,79.43l10.12-8.23,15.81-10.06,14.21-3.51,51.73,2.71-4.63,1.11-14.05,3.19-11.5,5.11-17.72,10.06-15.17,15.49L6.92,124.67l-.18-.25c-3.67-5.29-5.68-11.56-5.75-18H.99v-26.98"/><path id="Path_394" class="cls-1" d="M.01,84.27c8.53-7.56,19.22-18.18,29.4-22.1l3.59-1.49c2.63-.81,3.75-1.02,4.59-1.23,1.36-.37,2.77-.54,4.17-.5,5.27,.04,10.52,.62,15.67,1.73l5.96,1.04c.38,.07,5.64,.43,6.31-.12l-7.29-1.79c-3.6-1.14-7.27-2.04-10.99-2.68-6.95-1.07-11.83-2.11-19.84,.56l-4.09,1.15c-10.06,3.44-19.39,8.69-27.5,15.49v9.94s.01,0,.01,0Z"/><path id="Path_395" class="cls-1" d="M12.59,132.52c1.47-2.69,10.26-19.04,12.11-21.5,8.66-11.52,19.27-27.06,30.08-33.01l6.87-4.18c3.56-2.16,7.31-3.98,11.21-5.42,5.75-2.17,11.67-3.86,17.7-5.05,6.36-1.51,12.9-2.09,19.42-1.71l10.25,.41c.61-.09,9-.63,8.38-.61l-16.83-2.48c-5.27-.83-10.62-1-15.92-.52-11.76,.81-19.03,1.97-33.73,7.53-2.11,.8-4.17,1.72-6.18,2.76l-4.06,2.09c-16.34,8.87-36.7,36.94-46.9,52.6l.34,.51c2.1,3.12,4.53,6.01,7.25,8.59h0Z"/><path id="Path_396" class="cls-1" d="M119.83,62.04h19.91c.37,0,.77-.39,1.02-.63,.06-.05,.6-.67,.32-.67h-19.91c-.37,0-.77,.39-1.02,.63-.06,.05-.6,.67-.32,.67h0Z"/><path id="Path_397" class="cls-1" d="M.58,62.47H20.49c.37,0,.77-.39,1.02-.63,.06-.05,.6-.67,.32-.67H1.91c-.37,0-.77,.39-1.02,.63-.06,.05-.6,.67-.32,.67h0Z"/></g><g id="logocirlce"><circle id="Ellipse_5" class="cls-4" cx="230.79" cy="70.46" r="70.01"/><path id="Path_398" class="cls-2" d="M300.26,61.76c.34,2.83,.51,5.67,.51,8.51,.14,38.66-31.08,70.11-69.74,70.25-38.66,.14-70.11-31.08-70.25-69.74,0-.17,0-.34,0-.51,0-2.8,.16-5.6,.5-8.38"/><path id="Path_399" class="cls-5" d="M201.81,57.86l-14.24,3.52-15.85,10.08-10.15,8.25,.35,2.73,.73,3.64c1.76,8.31,5.08,16.22,9.78,23.3l3.65,3.65,14.37-17.41,15.21-15.52,17.76-10.08,11.52-5.12,14.09-3.2,4.64-1.12-51.85-2.72h0Z"/><path id="Path_400" class="cls-1" d="M280,62.44h19.58c.37,0,.78-.39,1.02-.63,.06-.05,.6-.67,.32-.67h-19.58c-.37,0-.78,.39-1.02,.63-.06,.05-.6,.67-.32,.67Z"/><path id="Path_401" class="cls-1" d="M160.42,62.45h22.4c.37,0,.78-.39,1.02-.63,.06-.05,.6-.67,.32-.67h-22.4c-.37,0-.78,.39-1.02,.63-.06,.05-.6,.67-.32,.67h0Z"/><path id="Path_402" class="cls-1" d="M161.1,83.52c8.55-7.51,18.08-17.11,28.29-21.01l3.6-1.48c2.63-.8,3.76-1.01,4.6-1.23,1.36-.37,2.77-.54,4.18-.49,5.28,.04,10.54,.61,15.7,1.72l5.97,1.03c2.11,.08,4.22,.04,6.33-.11l-7.31-1.79c-3.6-1.13-7.28-2.02-11.01-2.66-6.97-1.07-11.85-2.1-19.88,.55l-4.1,1.14c-10.05,3.4-19.37,8.61-27.47,15.36l.04,1c.09,2.11,.34,4.21,.73,6.29l.32,1.68h0Z"/><path id="Path_403" class="cls-1" d="M179.95,118.59c1.47-2.67,3.14-5.23,4.98-7.65,8.66-11.42,19.26-26.82,30.07-32.72l6.87-4.14c3.55-2.14,7.31-3.94,11.2-5.37,5.75-2.15,11.67-3.82,17.69-5.01,6.36-1.5,12.89-2.07,19.41-1.7l10.25,.41c.61-.09,9-.63,8.38-.61l-16.82-2.45c-5.27-.82-10.61-1-15.92-.52-11.76,.81-19.03,1.95-33.72,7.46-2.11,.79-4.17,1.7-6.18,2.73l-4.06,2.08c-16.34,8.79-29.56,22.95-39.76,38.48l.34,.5c2.1,3.1,4.53,5.95,7.25,8.52h0Z"/></g></svg>