<?xml version="1.0" encoding="UTF-8"?><svg id="Layer_1" xmlns="http://www.w3.org/2000/svg" xmlns:xlink="http://www.w3.org/1999/xlink" viewBox="0 0 297.31 153.3"><defs><style>.cls-1,.cls-2{fill:none;}.cls-2{stroke:#c1272d;stroke-miterlimit:10;stroke-width:3px;}.cls-3{clip-path:url(#clippath);}.cls-4{fill:#fafbfe;}.cls-5{fill:#fff;}.cls-6{fill:#1f1c1d;}.cls-7{fill:#292728;}.cls-8{clip-path:url(#clippath-1);}.cls-9{clip-path:url(#clippath-4);}.cls-10{clip-path:url(#clippath-3);}.cls-11{clip-path:url(#clippath-2);}</style><clipPath id="clippath"><rect class="cls-1" y="26.18" width="128.09" height="127.12"/></clipPath><clipPath id="clippath-1"><rect class="cls-1" x="141.4" width="155.92" height="153.3"/></clipPath><clipPath id="clippath-2"><rect class="cls-1" x="141.4" width="155.92" height="153.3"/></clipPath><clipPath id="clippath-3"><rect class="cls-1" x="141.4" y="26.11" width="128.15" height="127.18"/></clipPath><clipPath id="clippath-4"><rect class="cls-1" x="141.4" width="155.92" height="153.3"/></clipPath></defs><g class="cls-3"><g id="Group_236"><path id="Path_410" class="cls-6" d="M0,145.63V33.46c.02-4.05,3.32-7.31,7.36-7.29,0,0,0,0,0,0H120.73c4.05-.02,7.34,3.24,7.36,7.29v112.17c-.02,4.05-3.32,7.31-7.36,7.29H7.36C3.32,152.94,.02,149.68,0,145.64c0,0,0,0,0,0"/><path id="Path_411" class="cls-4" d="M65.18,153.29l2.55-78.46c.06-.78,.18-1.56,.36-2.33,.04-.23,.14-.46,.19-.69,0,0,0,0,0-.01,0,0,0-.01,0-.02,3.32-8.51,12.24-13.44,21.22-11.72,5.72,1,10.74,4.42,13.77,9.37,4.19,7.1,3.79,16.01-1.02,22.71-5.27,7.4-14.7,10.78-23.68,9.21,12.21,5.4,26.54-.52,32.31-12.3,6.34-12.96,1.13-28.5-11.43-35.62-13.11-7.37-29.67-3.59-38.28,8.74-1.72,2.57-3.07,5.37-3.99,8.32,.07-.19,.13-.38,.2-.56l-.24,1.57v-.88s0-.03,.01-.05c-.54,1.49-1.26,2.92-2.13,4.25-4.93,7.05-13.9,10.05-22.08,7.39-4.62-1.37-8.57-4.39-11.09-8.5-6.88-11.92,.56-29.12,14.42-31.9,3.43-.7,6.95-.75,10.4-.17-3.36-1.48-7-2.22-10.68-2.16-18.47,.45-29.43,22.22-21.78,38.09,4.85,10.32,16.62,16.5,27.97,15.69,4.7-.35,9.24-1.83,13.24-4.31,.41-.18,.86-.27,1.31-.25,.26,.04,.5,.13,.71,.29l.16,.17c.04,.06,.07,.12,.11,.17,.05,.13,.11,.26,.14,.39h0s0,.04,0,.05l1.5,63.52h5.82Zm-7.64-64.22s-.02-.03-.04-.06c.01,.03,.03,.05,.05,.07,0,0-.01,0-.02-.01"/></g></g><g id="Group_239"><g class="cls-8"><g id="Group_238"><path id="Path_412" class="cls-5" d="M207.39,152.12l2.53-78.55c.06-.78,.18-1.56,.36-2.33,.04-.23,.14-.46,.19-.69,0,0,0,0,0-.01,0,0,0-.01,0-.02,.49-1.26,1.11-2.46,1.84-3.59,4.26-6.22,11.74-9.4,19.18-8.14,5.69,1.02,10.66,4.43,13.64,9.38,4.15,7.12,3.76,16.01-1.01,22.73-5.22,7.41-14.56,10.79-23.46,9.22,12.1,5.41,26.29-.52,32.01-12.31,6.28-12.98,1.12-28.54-11.33-35.66-12.99-7.38-29.47-3.58-37.92,8.75-1.71,2.57-3.04,5.38-3.95,8.33,.07-.19,.13-.38,.2-.56l-.24,1.58v-.88s0-.03,.01-.05c-.54,1.49-1.24,2.92-2.11,4.25-4.84,7.05-13.75,10.06-21.88,7.4-4.59-1.38-8.5-4.41-10.98-8.51-6.82-11.93,.55-29.15,14.28-31.93,3.39-.7,6.89-.75,10.3-.17-3.33-1.48-6.94-2.22-10.58-2.16-18.3,.45-29.16,22.25-21.58,38.13,4.8,10.33,16.46,16.52,27.7,15.71,4.66-.35,9.16-1.83,13.11-4.31,.41-.18,.85-.27,1.29-.25,.25,.04,.5,.14,.7,.29l.16,.17c.04,.06,.07,.12,.11,.17,.05,.13,.1,.26,.14,.39,0,0,0,0,0,0,0,.01,0,.03,0,.04l1.48,63.59h5.77Zm-7.57-64.29s-.02-.04-.03-.06c.01,.03,.03,.05,.05,.07,0,0-.01,0-.02-.01"/><path id="Path_413" class="cls-7" d="M278.43,26.05v125.38c0,.48-.4,.88-.88,.88h-6.96c-.48,.03-.9-.34-.93-.82s.34-.9,.82-.93c.04,0,.07,0,.11,0h5.2c.48,0,.88-.39,.88-.87h0V27.8c0-.48-.4-.88-.88-.88h-5.11c-.48,.03-.9-.34-.93-.82s.34-.9,.82-.93c.04,0,.07,0,.11,0h6.87c.48,0,.88,.39,.88,.88"/></g></g></g><g class="cls-11"><g id="Group_240"><path id="Path_414" class="cls-7" d="M142.53,15.31h125.38c.48,0,.88,.4,.88,.88v6.96c.03,.48-.34,.9-.82,.93-.48,.03-.9-.34-.93-.82,0-.04,0-.07,0-.11v-5.2c0-.48-.39-.88-.88-.88h-121.88c-.48,0-.88,.4-.88,.88v5.11c.03,.48-.34,.9-.82,.93-.48,.03-.9-.34-.93-.82,0-.04,0-.07,0-.11v-6.87c0-.48,.39-.88,.88-.88"/><g><path class="cls-7" d="M287.34,95.45c-.62,0-1.1-.4-1.1-1.18v-6.03l-.88,.32c-.25,.09-.48,.13-.68,.13-.5,0-.81-.27-.88-.66l-.08-.47,1.65-.73c.92-.4,1.22-.48,1.71-.48,.58,0,.97,.49,.97,.97v8.13h-.72Z"/><path class="cls-7" d="M290.66,89.7h-.36v-.08c.36-.33,.61-.98,.61-1.37,0-.25-.07-.45-.21-.6-.2-.19-.36-.36-.36-.77,0-.53,.44-.98,1.04-.98,.69,0,1.14,.53,1.14,1.52,0,1.17-.84,2.29-1.86,2.29Zm2.79,0h-.36v-.08c.36-.33,.61-.98,.61-1.37,0-.25-.05-.45-.21-.6-.19-.19-.36-.36-.36-.77,0-.53,.45-.98,1.04-.98,.69,0,1.14,.53,1.14,1.52,0,1.17-.82,2.29-1.86,2.29Z"/></g><g><path class="cls-7" d="M203.21,10.05c-.62,0-1.1-.4-1.1-1.18V2.84l-.88,.32c-.25,.09-.48,.13-.68,.13-.5,0-.81-.27-.88-.66l-.08-.47,1.65-.73c.92-.4,1.22-.48,1.71-.48,.58,0,.97,.49,.97,.97V10.05h-.72Z"/><path class="cls-7" d="M206.53,4.3h-.36v-.08c.36-.33,.61-.98,.61-1.37,0-.25-.07-.45-.21-.6-.2-.19-.36-.36-.36-.77,0-.53,.44-.98,1.04-.98,.69,0,1.14,.53,1.14,1.52,0,1.17-.84,2.29-1.86,2.29Zm2.79,0h-.36v-.08c.36-.33,.61-.98,.61-1.37,0-.25-.05-.45-.21-.6-.19-.19-.36-.36-.36-.77,0-.53,.45-.98,1.04-.98,.69,0,1.14,.53,1.14,1.52,0,1.17-.82,2.29-1.86,2.29Z"/></g></g></g><g id="Group_243"><g class="cls-10"><g id="Group_242"><path id="Path_416" class="cls-6" d="M141.4,145.63V33.4c.02-4.05,3.32-7.31,7.37-7.29,0,0,0,0,0,0h113.42c4.05-.02,7.35,3.24,7.37,7.29h0v112.23c-.02,4.05-3.32,7.31-7.37,7.29h-113.42c-4.05,.02-7.35-3.24-7.37-7.29"/><path id="Path_417" class="cls-4" d="M206.61,153.29l2.56-78.5c.06-.78,.18-1.56,.36-2.33,.04-.23,.14-.46,.19-.69,0,0,0,0,0-.01,0,0,0-.01,0-.02,3.32-8.52,12.25-13.45,21.23-11.72,5.72,1,10.74,4.42,13.78,9.37,4.2,7.11,3.79,16.02-1.02,22.72-5.27,7.4-14.71,10.78-23.69,9.2,12.22,5.4,26.55-.52,32.33-12.3,6.34-12.96,1.13-28.52-11.44-35.64-13.11-7.37-29.68-3.59-38.29,8.75-1.72,2.57-3.07,5.37-3.99,8.32,.07-.19,.13-.38,.2-.56l-.25,1.57v-.88s0-.03,.01-.05c-.54,1.49-1.26,2.92-2.13,4.25-4.94,7.06-13.9,10.06-22.09,7.4-4.62-1.37-8.57-4.4-11.1-8.51-6.89-11.93,.56-29.13,14.42-31.91,3.43-.7,6.96-.75,10.4-.17-3.36-1.48-7.01-2.22-10.69-2.16-18.48,.45-29.44,22.23-21.79,38.11,4.85,10.33,16.63,16.51,27.98,15.7,4.7-.35,9.24-1.83,13.24-4.31,.41-.18,.86-.27,1.31-.25,.26,.04,.5,.13,.71,.29l.16,.17c.04,.06,.07,.12,.11,.18,.05,.13,.1,.26,.14,.39h0s0,.04,0,.05l1.5,63.55h5.82Zm-7.65-64.25s-.02-.03-.03-.06c.01,.03,.03,.05,.05,.07,0,0-.01,0-.02-.01"/></g></g></g><g id="Group_245"><g class="cls-9"><g id="Group_244"><path id="Path_418" class="cls-2" d="M200.14,76.67c0-14.68,12.1-26.58,27.03-26.58s27.03,11.9,27.03,26.58-12.1,26.58-27.03,26.58-27.03-11.9-27.03-26.58Z"/><path id="Path_419" class="cls-2" d="M153.81,66.03c0-14.68,12.1-26.58,27.03-26.58s27.03,11.9,27.03,26.58-12.1,26.58-27.03,26.58-27.03-11.9-27.03-26.58Z"/></g></g></g></svg>