<?xml version="1.0" encoding="UTF-8"?><svg id="Layer_1" xmlns="http://www.w3.org/2000/svg" viewBox="0 0 249.63 95.4"><defs><style>.cls-1{fill:#f0efef;}.cls-2,.cls-3{fill:#7e8082;}.cls-3{stroke:#7e8082;stroke-miterlimit:10;stroke-width:.25px;}</style></defs><g id="glutenfree"><path class="cls-2" d="m29.81,4.6s-.01,0-.01-.01C26.55,1.67,22.24-.09,17.55,0,7.69.18-.18,8.35,0,18.2s8.34,17.73,18.2,17.54c9.85-.17,17.72-8.35,17.54-18.2-.09-5.14-2.38-9.75-5.93-12.94ZM5.8,28.76c-2.53-2.82-4.11-6.51-4.18-10.59C1.46,9.21,8.61,1.79,17.58,1.62c4.22-.08,8.24,1.61,11.19,4.21L5.93,28.89s-.13-.13-.13-.13Zm28.32-11.18c.16,8.96-6.99,16.39-15.94,16.55-4.32.08-8.27-1.54-11.24-4.23L29.84,6.87c2.67,2.85,4.2,6.51,4.28,10.71Z"/><path class="cls-2" d="m17.87,3.54c-.44.04-.84.3-1.05.69l-.79,1.45c-.25.48-.38.99-.38,1.5-.25-.08-.52-.13-.79-.14l-1.21-.06c-.41-.02-.8.14-1.07.44-.27.3-.38.71-.3,1.11l.29,1.62c.08.44.27.85.54,1.19-.05.04-.1.1-.14.14-.27.3-.38.71-.31,1.11l.29,1.62c.08.42.25.8.49,1.12-.12.06-.23.16-.33.27-.27.3-.38.7-.3,1.11l.29,1.61c.08.45.27.86.54,1.2-.04.04-.1.1-.14.14-.27.3-.38.7-.31,1.11l.29,1.61c.21,1.16,1.13,2.03,2.3,2.18l1.24.22.03,6.69c0,.45.38.81.82.81h-.01c.44,0,.82-.36.82-.81l.03-6.69,1.24-.22c1.17-.15,2.1-1.03,2.3-2.18l.29-1.61c.06-.41-.04-.81-.31-1.11l-.14-.14c.27-.33.46-.75.54-1.2l.29-1.61c.08-.41-.03-.81-.3-1.11-.11-.11-.22-.21-.33-.27.24-.32.41-.7.49-1.12l.29-1.62c.06-.4-.04-.81-.31-1.11-.04-.04-.09-.1-.14-.14.27-.33.46-.75.54-1.19l.29-1.62c.08-.4-.03-.81-.3-1.11-.27-.3-.66-.46-1.07-.44l-1.21.06c-.27.01-.54.06-.79.14,0-.51-.13-1.03-.38-1.5l-.79-1.45c-.21-.39-.6-.65-1.05-.69,0,0,.01,0,0,0Z"/><path class="cls-2" d="m16.92,18.5l.03.03s.01-.01.02-.03h-.05Z"/><path class="cls-2" d="m16.92,18.5l.03.03s.01-.01.02-.03h-.05Z"/><path class="cls-2" d="m16.92,18.5l.03.03s.01-.01.02-.03h-.05Z"/><path class="cls-2" d="m18.8,18.5l-.03.03s-.01-.01-.02-.03h.05Z"/><path class="cls-2" d="m18.76,18.51s.01.02.02.03l.03-.03h-.05Z"/><path class="cls-2" d="m18.76,18.51s.01.02.02.03l.03-.03h-.05Z"/><g><path class="cls-1" d="m19.16,11.16v-.09l.16-.86c.05-.69.53-1.27,1.21-1.46l1.37-.21-.28,1.36c-.22.67-.83,1.12-1.52,1.14l-.86.1h-.09v.02Z"/><path class="cls-1" d="m18.83,15.02v-.08l.15-.79c.05-.63.52-1.17,1.18-1.34l1.34-.19-.27,1.25c-.21.61-.81,1.03-1.48,1.05l-.84.1s-.08,0-.08,0Z"/><path class="cls-1" d="m18.83,18.88v-.08l.14-.77c.04-.62.48-1.14,1.08-1.31l1.23-.19-.25,1.22c-.2.6-.74,1.01-1.36,1.02l-.77.09h-.08v.02Z"/><path class="cls-1" d="m18.83,22.86v-.07l.13-.73c.04-.58.45-1.08,1.03-1.24l1.17-.18-.23,1.16c-.19.57-.7.95-1.29.97l-.73.09h-.08Z"/><path class="cls-1" d="m16.35,11.16l-.86-.1c-.69-.01-1.3-.47-1.52-1.14l-.28-1.36,1.37.21c.68.19,1.16.77,1.21,1.46l.15.86v.09h-.08v-.02Z"/><path class="cls-1" d="m16.81,15.02l-.84-.1c-.67-.01-1.26-.43-1.48-1.05l-.27-1.25,1.34.19c.66.17,1.13.71,1.18,1.34l.14.79v.08s-.07,0-.07,0Z"/><path class="cls-1" d="m16.82,18.88l-.77-.09c-.62-.01-1.16-.42-1.36-1.02l-.25-1.22,1.23.19c.61.17,1.04.69,1.08,1.31l.13.77v.08h-.07v-.02Z"/><path class="cls-1" d="m16.82,22.86l-.73-.09c-.59-.01-1.1-.4-1.29-.97l-.23-1.16,1.17.18c.58.16.99.66,1.03,1.24l.12.73v.07h-.07Z"/><path class="cls-1" d="m17.86,8.84l-.05-.06-.49-.66c-.44-.48-.52-1.19-.21-1.77l.75-1.07.75,1.07c.31.58.23,1.29-.21,1.77l-.49.66s-.05.06-.05.06Z"/></g></g><g id="performance"><circle class="cls-2" cx="232.3" cy="58.77" r="3.44"/><path class="cls-2" d="m235.14,63.62l2.55,3.53c.22.31.67.34.94.07l5.71-5.94c.14-.14.31-.25.5-.32l.21-.08c.91-.34,1.89.34,1.82,1.26h0c-.02.27-.13.53-.32.73l-8.11,8.86c-.29.32-.79.31-1.07-.02l-2.43-2.81c-.21-.25-.64-.16-.72.15l-1.35,3.8c-.14.51.19,1.02.73,1.14l3.2.32c.6.14.93.75.7,1.29l-5.36,13.42c-.1.24-.27.44-.49.59h0c-.82.55-1.98.14-2.2-.79h0c-.06-.25-.04-.5.05-.74l3.64-9.69c.21-.5-.15-1.04-.71-1.09l-2.62-.2c-.66-.05-1.28.3-1.56.87l-2.36,4.41c-.53,1-1.15,1.95-1.83,2.86l-5.81,7.62c-.21.19-.47.33-.76.39h0c-.98.21-1.91-.5-1.91-1.45v-.1c0-.44.2-.85.55-1.13l4.01-5.19c1.31-1.7,2.33-3.58,3.02-5.58l5.29-12.51c.11-.29-.21-.57-.51-.43l-3.88,1.7c-.4.18-.64.57-.6.99l.43,4.28c0,.13,0,.27-.03.4h0c-.23.83-1.31,1.12-1.97.54l-.05-.04c-.2-.18-.33-.41-.37-.67l-.92-5.96c-.07-.62.3-1.22.9-1.48l7.62-3.28.85-.37c.2-.09.43-.09.64,0h0c1.2.51,2.55.5,3.74,0,0,0,.28-.05.4.08.27.28.46.58.46.58h-.02Z"/></g><g id="gains"><g><path class="cls-2" d="m170.29,73.92l-.66-2.47c-.06-.24-.11-.47-.15-.71l-1.31-7.48c-.08-.47-.43-.84-.88-.94-.26-.07-6.53-1.68-8.73-2.05-.06-.02-.65-.11-1.02.02-.52.18-.67.79-.73,1.24-.07.51-.21,1.03-.43,1.59-.57,1.43-.6,1.88-.61,2.02-.02.34.14.98.51,1.26.14.11.28.19.45.25-.14.36-.26.73-.1,1.08.27.57,1.29,1.33,2.04,1.15.2-.05.45-.18.83-.71l2.27.5v.84c0,.27-.11.51-.29.69l-.58.58c-.3.3-.52.65-.67,1.05l-.24.67c-.59-.58-1.26-1.07-2-1.42l-.49-.24c-1.77-.86-3.85-.77-5.56.23-1.71,1.01-3.05,2.58-3.78,4.43-.32.81-.47,1.66-.43,2.53l.03.72c.08,1.96.66,3.87,1.7,5.53.39.63,1,1.09,1.72,1.29l1.06.3c.96.27,1.95.41,2.94.41s1.92-.13,2.86-.39l3.99-1.16c.23-.07.47-.1.71-.1h2.32c.79,0,1.56-.17,2.27-.5l.63-.28c.32-.15.58-.38.77-.66.02-.01.03-.02.03-.03,0-.03.03-.05.04-.09.02-.01.02-.02.02-.03.14-.24.22-.52.24-.81l.02-.21c0-.2.05-.39.12-.58l.97-2.47c.27-.67.4-1.37.4-2.09v-.87c0-.71-.09-1.41-.28-2.09h0Zm-11.7-6.64c-.11.17-.19.28-.25.35-.16-.07-.39-.23-.51-.35.03-.09.07-.21.11-.29.03-.07.05-.14.08-.21l.6.46s-.02.03-.03.04h0Zm10.73,9.6c0,.56-.1,1.11-.31,1.63l-.13.33c-.07-.38-.18-.75-.31-1.12l-.42-1.19c-.12-.33-.47-.5-.8-.38-.32.11-.49.47-.38.8l.42,1.19c.49,1.38.59,2.86.3,4.3l-.02.08c-.06.08-.14.15-.24.19l-.62.29c-.55.25-1.14.38-1.75.38h-2.32c-.21,0-.41.02-.62.06-.03,0-.05,0-.08.01h-.05l-.13.03-.79.16c-.97.2-1.92.04-2.73-.47l-.14-.09c-.3-.18-.68-.1-.87.2-.18.29-.09.67.2.86l.15.09c.19.12.38.22.58.31l-.55.15c-1.68.46-3.46.45-5.13-.02l-1.07-.3c-.41-.12-.76-.38-.99-.75-.92-1.48-1.44-3.18-1.51-4.92l-.03-.72c-.03-.69.09-1.37.34-2.02.63-1.59,1.79-2.94,3.26-3.81.73-.43,1.54-.65,2.36-.65.69,0,1.38.16,2.02.47l.48.23c.81.39,1.53.96,2.09,1.67-.32,1.65-.19,3.34.39,4.92l.43,1.2c.09.25.33.41.59.41.07,0,.14,0,.21-.04.32-.12.49-.48.37-.8l-.43-1.19c-.5-1.38-.61-2.86-.32-4.29l.04-.22v-.03l.59-1.57c.09-.22.22-.42.38-.59l.58-.58c.42-.42.66-.98.66-1.58v-.17s.04,0,.06-.02c.3-.18.65-.7,1.62-2.26l.09-.16c.1-.11.59-.43,1.05-.68.3-.16.41-.54.25-.85-.17-.3-.55-.41-.85-.24-.81.44-1.31.81-1.49,1.08l-.11.19c-.21.33-.51.83-.78,1.23l-.49-.11,1.15-2.5c.15-.32,0-.69-.3-.83-.31-.15-.69-.01-.83.3l-1.27,2.76-.82-.18,1.35-2.94c.14-.31,0-.68-.31-.82-.31-.15-.68,0-.82.3l-1.2,2.59-.7-.54.93-2.27c.13-.32-.02-.69-.35-.82-.31-.12-.68.03-.81.35l-1.06,2.58c-.15-.01-.21-.03-.23-.03-.03-.05-.08-.19-.08-.24,0-.09.06-.49.52-1.65.26-.64.43-1.27.51-1.88,0-.09.03-.17.04-.23.09,0,.18,0,.26.03,2.12.36,8.41,1.97,8.58,1.97h0l1.3,7.49c.05.27.11.54.18.81l.67,2.48c.15.57.23,1.16.23,1.76v.87h0Z"/><path class="cls-2" d="m157.78,79.96c.04.34-.21.65-.55.69l-1.26.14c-.34.04-.69.06-1.03.06-1.34,0-2.66-.29-3.88-.86l-.23-.1c-.31-.15-.45-.52-.31-.83.15-.31.52-.45.83-.31l.23.11c1.33.61,2.8.85,4.25.69l1.26-.14c.35-.04.65.21.69.55Z"/></g></g><g id="wellness"><circle class="cls-2" cx="87.99" cy="63.01" r="3.44"/><path class="cls-2" d="m82.51,71.08c.53,1.1.68,2.35.41,3.54l-4.17,18.71c-.09.33-.07.68.06.99h0c.42.97,1.7,1.2,2.43.44l.45-.47c.06-.06.11-.12.15-.19l4.33-14.34c.77-1.12,2.42-1.13,3.19-.01l4.51,14.49s.04.05.06.08l.49.61c.62.76,1.82.56,2.16-.36h0c.09-.25.1-.51.04-.77l-4-19.1c-.27-1.29-.06-2.64.6-3.79l5.7-9.98c.17-.28.21-.63.11-.94h0c-.26-.8-1.27-1.05-1.87-.46l-.27.26s-.09.09-.12.14l-4.9,6.6c-.43.58-.99,1.07-1.64,1.41h0c-1.53.81-3.36.75-4.84-.15l-.07-.05c-.65-.4-1.2-.94-1.6-1.58l-3.79-6.05s-.07-.11-.11-.15l-.26-.3c-.57-.65-1.63-.49-1.98.3h0c-.15.34-.14.72.03,1.05l4.91,10.09v-.02Z"/></g><g id="nongmo"><g><g><path class="cls-2" d="m82.44,22.73c-1.87,0-3.52-1.35-3.52-3.54,0-2.07,1.45-3.72,3.86-3.72,1.32,0,1.89.73,1.89,1.38v.48h-.05c-.47-.4-1.27-.59-2.01-.59-1.31,0-2.24.95-2.24,2.25,0,1.77.97,2.47,2.23,2.47.68,0,.84-.26.84-.66v-.56c0-.45-.06-.82-.1-1.02h.72c.39,0,.72.34.72.64v1.13c0,1.05-.59,1.75-2.35,1.75h0Z"/><path class="cls-2" d="m98.13,22.73c-1.78,0-3.22-1.42-3.22-3.52s1.23-3.74,3.37-3.74c1.71,0,3.22,1.3,3.22,3.52s-1.22,3.74-3.37,3.74Zm.02-6.02c-1.04,0-1.79.85-1.79,2.28,0,1.69.62,2.52,1.9,2.52,1.09,0,1.79-.78,1.79-2.32,0-1.65-.71-2.48-1.9-2.48Z"/></g><path class="cls-2" d="m102.09,5.22h0c-3.25-2.92-7.56-4.68-12.26-4.58-9.86.18-17.72,8.37-17.53,18.22.19,9.85,8.36,17.72,18.22,17.53,9.85-.18,17.72-8.37,17.53-18.22-.1-5.14-2.4-9.75-5.95-12.94h-.01Zm-23.99,24.17c-2.53-2.81-4.12-6.51-4.19-10.58-.18-8.97,6.98-16.4,15.94-16.57,4.23-.09,8.25,1.6,11.21,4.2l-9.05,9.15-.02.02c-.29.24-.73.94-1.08,2.04l-.81,2.48c-.07.24-.15.45-.2.72-.06-.32-.18-.74-.4-1.33l-.98-2.74c-.26-.75-.95-1.19-1.93-1.19h-.3c-.26,1.39-.56,4.51-.56,6.08,0,.09.01.17.03.24l-7.53,7.61-.13-.13Zm12.38,5.36c-4.32.09-8.27-1.53-11.24-4.22l7.87-7.93h-.01c0-1.29.13-4.09.31-5.1.11.25.27.67.39,1.03l1.01,2.95c.26.76.67,1.12,1.13,1.12h.38c.2-.28.42-.75.58-1.25l.99-3.01c.1-.32.23-.6.33-.83.11.7.26,3.27.26,4.16,0,.63.38.93.91.93h.54c0-1.4-.21-4.45-.34-5.56-.04-.29-.11-.54-.22-.75l8.75-8.82c2.67,2.85,4.21,6.51,4.3,10.71.17,8.97-6.99,16.4-15.94,16.57Z"/></g></g><g id="DAIRYFREE"><path class="cls-2" d="m173.17,5.55s0,0,0-.01c-3.17-3.03-7.44-4.92-12.15-4.97-9.9-.12-18.03,7.84-18.15,17.73s7.83,18.04,17.73,18.15c9.89.12,18.03-7.84,18.14-17.73.06-5.16-2.1-9.85-5.56-13.16h0Zm-24.81,23.51c-2.45-2.9-3.93-6.66-3.88-10.75.11-9,7.51-16.23,16.51-16.13,4.24.05,8.22,1.86,11.1,4.56l-23.61,22.44-.13-.13h.01Zm28.74-10.36c-.11,9-7.51,16.23-16.49,16.13-4.34-.05-8.25-1.79-11.15-4.59l23.67-22.42c2.59,2.94,4.02,6.66,3.97,10.88Z"/><path class="cls-2" d="m156.89,7.7c3.82.64,4.64.48,7.58,0,.23-.04-.14-.33-.7-.62-1.39-.72-4.78-.62-6.21,0-.94.41-.91.59-.66.63h0Z"/><path class="cls-2" d="m164.35,29.09c.53-.23.87-.74.87-1.32v-14.23c0-.58-.2-1.15-.56-1.61l-.11-.14c-.17-.22-.3-.46-.39-.72-.12-.34-.08-.91,0-1.32.02-.11.07-.21.13-.29l.18-.24c.06-.09.1-.19.1-.29v-.49c-2.94.49-3.95.65-7.77,0h0v.42c0,.11.04.22.12.31l.27.38c.17.35.18.52.17.89s-.1.72-.29,1.03c-.05.09-.11.17-.17.25l-.31.39c-.36.46-.55,1.02-.55,1.6v14.01c0,.64.39,1.22.98,1.47h0c2.32.96,4.93.95,7.23-.05l.13-.06h-.02Z"/><path class="cls-1" d="m158.14,9.77h0c.31.58.71,1.18.7,1.89,0,.26-.03.51-.12.71l-.07.17c-.23.55-.36,1.16-.36,1.78v13.62s.05.54-.46.39-.48-.39-.48-.39v-13.58c0-.72.16-1.42.47-2.02l.1-.18c.13-.24.22-.5.28-.77.09-.41.07-.84,0-1.25l-.06-.38h0Z"/></g><g id="SOY_FREE"><g><path class="cls-2" d="m243.4,4.93s0,0,0-.01c-3.33-2.89-7.7-4.59-12.44-4.42-9.95.35-17.75,8.74-17.39,18.67.35,9.94,8.73,17.75,18.67,17.39,9.94-.35,17.74-8.74,17.39-18.67-.18-5.19-2.58-9.8-6.21-12.96h0Zm-15.64,16.53l-8.04,8.4-.13-.13c-2.6-2.8-4.26-6.5-4.41-10.61-.32-9.05,6.78-16.66,15.82-16.98,4.26-.15,8.34,1.48,11.37,4.06l-7.49,7.83.62,1.48,7.96-8.29c2.74,2.83,4.36,6.5,4.51,10.74.32,9.05-6.78,16.66-15.81,16.98-4.36.16-8.37-1.41-11.42-4.08l8.69-9.04-1.68-.35h0Z"/><g><path class="cls-2" d="m223.98,9.98l-.97,2.22c-.54,1.23-.19,2.67.84,3.53l.83.69c.43.36.68.88.68,1.44v2.05c0,1.28.83,2.4,2.05,2.78l1.48.45c.74.23,1.35.74,1.7,1.43l.51,1c.63,1.24,2.08,1.83,3.39,1.37l2.62-.91-.29-2.29c-.13-1.01-.87-1.83-1.86-2.07l-.51-.12c-.55-.13-1-.52-1.21-1.04l-.55-1.37c-.27-.66-.66-1.26-1.16-1.78l-.73-.75.64.34c.55.29,1.19.34,1.77.15l.43-.14c.38-.12.79.04.99.39l.26.46c.57,1.02,1.72,1.58,2.88,1.41l2.43-.37-.99-2.4c-.45-1.09-1.4-1.89-2.55-2.15l-.79-.18c-.37-.08-.71-.28-.97-.57l-1.04-1.16c-.87-.98-2.14-1.51-3.45-1.45l-.93.04c-.41.02-.82-.1-1.15-.35h-.02c-.58-.44-1.29-.67-2.01-.67h-2.31v.02Z"/><ellipse class="cls-1" cx="226.41" cy="13.47" rx="1.97" ry="2.13" transform="translate(101.54 202.81) rotate(-60)"/><ellipse class="cls-1" cx="229" cy="19.62" rx="1.7" ry="1.84" transform="translate(97.51 208.13) rotate(-60)"/><ellipse class="cls-1" cx="233.91" cy="24.3" rx="1.27" ry="1.38" transform="translate(95.91 214.72) rotate(-60)"/></g></g></g><g id="protein"><path class="cls-3" d="m30.21,67.51c-2.67-1.74-5.75-2.84-8.92-3.19l-.93-.1-3.96,4.38h0v.85c0,.42.04.83.11,1.24l.07.39c-.66-.15-1.33-.26-2-.33l-.93-.1-4.02,4.36h0l-.13.92c-.08.57-.1,1.14-.05,1.71l.04.52c-.64-.15-1.28-.25-1.93-.32l-.92-.1-4.52,4.27,2.57.47c2.99.55,5.81,1.8,8.23,3.65l.38.29,4.04-4.83h0l-.33-.49c-.87-1.28-1.31-2.84-1.03-4.36v-.03c1.41.62,2.74,1.4,3.96,2.33l.38.29,4.04-4.83h0l-1.36-1.98c-.43-.75-.7-1.58-.8-2.44,1.58.64,3.09,1.49,4.45,2.53l.38.29,4.03-4.83-.85-.56h0Zm-19.77,10.05c-.03-.47-.02-.94.04-1.4l.14-.97,1.07.2c1.14.21,2.27.53,3.35.94-.28,1.32-.19,2.68.24,3.95v.03c-1.49-.84-3.1-1.48-4.77-1.92,0,0-.07-.83-.07-.83Zm2.7,7.49c-2.45-1.78-5.31-3-8.29-3.55l-.61-.12,2.75-2.6.46.05c2.98.33,5.88,1.36,8.4,2.98l-2.71,3.24Zm7.02-7.09c-2.45-1.78-5.31-3-8.29-3.55l-.24-.04,2.38-2.68.46.06c2.98.32,5.88,1.35,8.4,2.97,0,0-2.71,3.24-2.71,3.24Zm2.06-4.78c-1.45-.81-2.99-1.43-4.59-1.85l-.14-.81c-.06-.35-.09-.71-.09-1.07v-.67l1,.19c.94.17,1.87.41,2.78.73.05,1.17.37,2.31.95,3.32l.09.16h0Zm4.65-1.65c-2.46-1.78-5.31-3-8.29-3.55l-.27-.05,2.4-2.66.47.05c2.98.32,5.88,1.35,8.39,2.97,0,0-2.7,3.24-2.7,3.24Z"/></g></svg>