<?xml version="1.0" encoding="UTF-8"?><svg id="Layer_1" xmlns="http://www.w3.org/2000/svg" viewBox="0 0 494 152.69"><defs><style>.cls-1{fill:#9d9ea1;}.cls-2{fill:#1f1c1d;}.cls-3{fill:#86ae52;}</style></defs><path id="Path_420" class="cls-3" d="M0,143.93V9.06C.03,4.2,3.99,.28,8.85,.3c0,0,0,0,0,0H145.15c4.86-.02,8.83,3.9,8.85,8.76V143.93c-.03,4.86-3.99,8.79-8.85,8.76H8.85C3.99,152.71,.03,148.79,0,143.93c0,0,0,0,0,0"/><path id="Path_421" class="cls-1" d="M170,143.62V8.76C170.03,3.9,173.99-.03,178.85,0c0,0,0,0,0,0h136.29c4.86-.02,8.83,3.9,8.85,8.76V143.62c-.03,4.86-3.99,8.79-8.85,8.76H178.85c-4.86,.03-8.83-3.9-8.85-8.76,0,0,0,0,0,0"/><path id="Path_422" class="cls-2" d="M340,143.93V9.06c.03-4.86,3.99-8.79,8.85-8.76,0,0,0,0,0,0h136.29c4.86-.02,8.83,3.9,8.85,8.76V143.93c-.03,4.86-3.99,8.79-8.85,8.76h-136.29c-4.86,.03-8.83-3.9-8.85-8.76,0,0,0,0,0,0"/></svg>