<?xml version="1.0" encoding="UTF-8"?><svg id="Layer_1" xmlns="http://www.w3.org/2000/svg" viewBox="0 0 37.46 49.8"><defs><style>.cls-1{fill:#489bf8;}</style></defs><path class="cls-1" d="m18.11,19.5c1.5-.4,3.5-.1,4.6.6,2.2,1.5,3,4.5,2.2,8.5-.6,3.5-2.4,7.4-5,11h0c-4.5,6.4-10,10.2-14.2,10.2-1.2,0-2.3-.3-3.2-1-4.2-2.9-3-11.3,2.7-19.5,2.2-3.1,4.9-5.7,7.4-7.5v.4c-.3,1.4-.3,2.8,0,4.1h0c-1.6,1.4-3.1,3.1-4.5,5.1-5,7.1-5.5,13.3-3.6,14.6s7.5-1.2,12.5-8.3h0c2.3-3.2,3.8-6.7,4.4-9.7.5-2.4.2-4.3-.8-5-.3-.2-.7-.3-1.2-.3-.6,0-1.3.2-2.1.5l.1-.4c.1-1.1.4-2.2.7-3.3h0Z"/><path class="cls-1" d="m20.11,30.8c-1.5.5-3.2.3-4.3-.4-2.2-1.5-3.2-4.4-2.6-8.4.5-3.5,2.1-7.5,4.5-11.2h0C21.91,4.2,27.21.2,31.41,0c1.2,0,2.3.2,3.3.8,4.3,2.8,3.5,11.2-1.9,19.6-2,3.2-4.8,6.3-7.3,8.3l.1-.3c.2-1.4.4-3,.1-4.3h0c1.5-1.5,2.9-3.5,4.2-5.5,4.7-7.3,4.9-13.5,3-14.7-1.9-1.2-7.5,1.6-12.2,8.9h0c-2.1,3.3-3.6,6.8-4,9.8-.3,2.4,0,4.3,1,4.9.3.2.8.3,1.2.3.6,0,1.1,0,1.9-.4h0c0,1.1-.3,2.3-.7,3.3v.1Z"/></svg>