<?xml version="1.0" encoding="UTF-8"?><svg id="Layer_1" xmlns="http://www.w3.org/2000/svg" viewBox="0 0 28.02 37.32"><path d="m23.78,37.32c-2.19-.06-3.95-1.79-4.13-3.99-.88-10.81-5.56-15.57-14.21-15.57h-1.2v19.56c-1.17,0-2.23-.47-3-1.24-.76-.77-1.24-1.83-1.24-3V4.77C0,2.42,1.9.53,4.24.53v16.94c3.84.05,7.25-.91,10.99-3.36,2.4-1.58,4.8-4.13,4.8-6.24,0-.91-.43-1.73-1.53-2.35-.87-.48-1.78-1.11-1.78-2.45,0-2.02,1.54-3.07,2.74-3.07,1.92,0,3.07,1.82,3.07,3.26,0,5.81-5.66,11.96-13.73,14.07-1.15.29,0,.29,0,.29,6.82.28,14.98,4.97,14.98,19.7Z"/><path d="m4.16,17.47h19.62V.53h0c2.34,0,4.24,1.9,4.24,4.24v28.31c0,2.34-1.9,4.24-4.24,4.24h0v-19.57s-19.62,0-19.62,0v-.28Z"/></svg>