<?xml version="1.0" encoding="UTF-8"?><svg xmlns="http://www.w3.org/2000/svg" viewBox="0 0 412.94 399.45"><defs><style>.cls-1{fill:#fff;}.cls-2{fill:#9feefa;}.cls-3{fill:#c4c4c4;}.cls-4{fill:#14c7dd;}.cls-5{fill:#949494;}.cls-6{fill:#3399da;}</style></defs><g id="Plastic-tampon"><path class="cls-4" d="m23.74,43.16L13.06,14.93c-.97-2.55-1.22-5.32-.75-8l.05-.3c.34-1.9,1.63-3.49,3.42-4.22h0c1.04-.42,2.16-.63,3.28-.61l35.93.55c1.23.02,2.46,0,3.68-.07L98.24.07,101.46,0c1.38-.03,2.68.61,3.49,1.73h0c.41.56.61,1.25.57,1.95l-.17,2.92c-.16,2.7-.69,5.36-1.56,7.92l-7.14,20.9c-2.05,5.99-2.93,12.32-2.6,18.64l1.37,25.98,3.22,40.48c.34,4.28.39,8.58.14,12.87l-2.3,40.12c-.49,8.55-1.75,17.04-3.78,25.37l-10.16,41.83c-.39,1.59-.19,3.28.54,4.74l10.14,20.11c.99,1.96,1.43,4.16,1.27,6.35h0c-.06.77-.54,1.45-1.25,1.75l-1.5.64c-2.6,1.1-5.35,1.83-8.15,2.15l-25.64,2.9c-2.37.27-4.75.32-7.12.15l-14.65-1.03c-1.9-.13-3.81-.16-5.71-.06l-2.16.1c-8.12.39-18.73.97-23.97-3.2h0s-.25-2.85-.25-2.85c-.05-.56.03-1.13.24-1.66l5.94-14.76,5.93-14.65,7.54-198.23Z"/><path class="cls-3" d="m21.12,349.69l-2.03,7.16c-.79,2.78-.41,5.76,1.05,8.25l3.28,5.61c1.22,2.09,1.72,4.54,1.4,6.94l-.58,4.35c-.28,2.13-1.35,4.08-2.99,5.47l-8.1,6.83c-.1.09,0,.25.12.19l5.91-2.54c.29-.13.58.18.45.46l-2.75,5.85,5.32-7.23c.26-.35.81-.23.91.19l1.81,8.21-.2-8.87c0-.31.36-.47.58-.26l2.63,2.46-2.14-3.6c-.6-1.01-.81-2.2-.58-3.34l1.35-6.94c.59-3.02.07-6.15-1.47-8.81l-3.61-6.24c-1.1-1.9-1.37-4.16-.75-6.26l2.95-10-2.54,2.11Z"/><path class="cls-6" d="m20.63,283.56l-1.5,43.23-3.22,16.3c-.28,1.44.12,2.93,1.1,4.03l.86.96c.9,1.01,2.09,1.73,3.41,2.04l2,.47,3.37-.32c1.05-.1,2.06-.45,2.95-1.02l1.32-.85c1.53-.99,2.35-2.77,2.11-4.57l-2.32-17.14-1.15-42.65c-.09-3.21.13-6.42.66-9.58l3-18.21,2.6-16.51-20.27-1.71,2.63,19.88,2.06,16.74c.36,2.97.5,5.95.39,8.94Z"/><path class="cls-6" d="m35.79,45.44l1.62.94c4.57,2.64,7.91,6.97,9.32,12.05l2.53,12.18,3.07,17.93c.65,3.77.96,7.59.94,11.42l-.24,41.3-3.15,83.35c-.14,3.69-1.44,7.25-3.72,10.16l-.33.42c-3.81,4.87-9.58,7.82-15.76,8.06l-4.44.17-5.24-.46c-6.4-.57-12.19-4.05-15.68-9.45l-.34-.52c-2.02-3.13-3.13-6.77-3.18-10.49L0,143.86c-.01-.77,0-1.54.03-2.31l1.73-38.64c.32-7.13,1.44-14.21,3.35-21.09l4.16-14.98,5.61-13.15c1.75-4.1,5.04-7.35,9.16-9.04h0c3.82-1.57,8.16-1.28,11.74.79Z"/><path class="cls-4" d="m19.56,337.39l-.71,3.72c-.35,1.81.1,3.68,1.22,5.14h0c.23.3.56.49.93.55h0c2.23.34,4.51-.06,6.5-1.12h0s-4.06-1.86-4.06-1.86h0c-1.07-.79-1.92-1.85-2.44-3.08l-1.44-3.35Z"/><path class="cls-4" d="m20.59,249.93l.02-.19c.1-1.18.57-2.25,1.32-2.97h0c.94-.9,2.19-1.04,3.24-.36h0c.55.36.93,1.03,1.04,1.8l.26,1.99c.16,1.21.18,2.44.07,3.65l-2.12,23.22c-.04.45-.55.47-.62.02l-3.06-22.02c-.24-1.7-.28-3.43-.14-5.14Z"/><path class="cls-4" d="m6.25,203.73l.16,17.39c.04,4.14,1.35,8.17,3.75,11.54h0c1.02,1.44,2.61,2.38,4.36,2.58l4.11.48c5.53.65,11.12-.3,16.13-2.72h0s-8.11-3.23-8.11-3.23c-3.44-1.37-6.69-3.19-9.65-5.42l-.85-.64-.06-.04c-2.98-2.24-5.19-5.35-6.32-8.91l-3.52-11.03Z"/><path class="cls-4" d="m40.97,78.36l-.35-3.32c-.17-2.55-.72-3.72-.73-6.21,0-.86.31-2.03.45-2.87h0c.28-1.28,1.18-1.54,1.91-.55l.29.4c.12.16.24.34.36.52,1.82,2.75,3.02,5.87,3.66,9.1l.45,2.26c.33,1.63.69,4.69.88,6.34l1.46,11.21c.15,1.33.28,4.25.38,6.92.12,3.09.03,6.18-.26,9.25l-.41,4.43c.02.64-3.81,13.35-4,12.74l-.19-16.44c-.03-2.45-.23-4.89-.52-7.32-.1-.8-.2-2.04-.35-4.24-.22-3.13-.65-6.25-1.27-9.32l-.36-3.64c-.63-3.1-.47-1.78-.73-4.94-.08-.91-.57-3.44-.65-4.33Z"/><path class="cls-6" d="m32.98,28.94c-.28-.66-.53-1.32-.76-2l-4.45-13.19h0c-.28-.82-.34-1.7-.18-2.55l.37-1.99c.12-.66.93-.9,1.4-.42h0c1.69.97,3.08,2.42,3.91,4.18.61,1.3,1.07,2.7,1.44,4l2.37,9.61c.88,3.11.81,4.67.81,7.32l.27,9.74-5.18-14.7Z"/><path class="cls-6" d="m32.98,28.94c-.28-.66-.53-1.32-.76-2l-4.45-13.19h0c-.28-.82-.34-1.7-.18-2.55l.37-1.99c.12-.66.93-.9,1.4-.42h0c1.69.97,3.08,2.42,3.91,4.18.61,1.3,1.07,2.7,1.44,4l2.37,9.61c.88,3.11.81,4.67.81,7.32l.27,9.74-5.18-14.7Z"/><path class="cls-6" d="m71.79,28.99c.21-.68.4-1.37.56-2.07l3.13-13.59h0c.2-.85.17-1.73-.08-2.56l-.58-1.93c-.19-.64-1.04-.79-1.47-.27h0c-1.62,1.15-2.88,2.74-3.54,4.58-.49,1.36-.8,2.8-1.04,4.13l-1.4,9.81c-.57,3.19-.33,4.73-.05,7.36l.76,9.71,3.71-15.18Z"/><path class="cls-6" d="m48.07,28.75c-.11-.7-.18-1.41-.24-2.12l-1.01-13.88h0c-.06-.86.1-1.73.46-2.52l.85-1.83c.28-.6,1.13-.64,1.46-.06h0c1.4,1.36,2.38,3.11,2.74,5.03.27,1.41.36,2.88.39,4.23l-.11,9.89c.08,3.23-.39,4.72-1.05,7.29l-2.18,9.49-1.33-15.53Z"/><path class="cls-6" d="m87.44,28.94c.23-.66.45-1.32.64-2l3.75-13.19h0c.23-.82.29-1.7.15-2.55l-.31-1.99c-.1-.66-.79-.9-1.18-.42h0c-1.43.97-2.6,2.42-3.3,4.18-.52,1.3-.9,2.7-1.22,4l-2,9.61c-.74,3.11-.68,4.67-.68,7.32l-.22,9.74,4.37-14.7Z"/><path class="cls-6" d="m40.05,254.79c-.29.71-.55,1.42-.79,2.15l-4.64,14.19h0c-.29.88-.35,1.83-.19,2.75l.38,2.14c.13.71.97.97,1.46.45h0c1.77-1.04,3.21-2.6,4.08-4.5.64-1.4,1.12-2.9,1.5-4.3l2.47-10.33c.92-3.34.84-5.02.84-7.87l.28-10.48-5.4,15.82Z"/><path class="cls-6" d="m61.32,255.07c.2.68.38,1.37.53,2.07l2.93,13.6h0c.18.85.15,1.73-.11,2.56l-.59,1.93c-.19.64-1.03.79-1.44.26h0c-1.57-1.15-2.79-2.75-3.41-4.6-.46-1.36-.76-2.8-.98-4.14l-1.27-9.81c-.53-3.19-.28-4.73.02-7.36l.84-9.71,3.48,15.19Z"/><path class="cls-6" d="m75.31,251.91c.36.61.7,1.24,1.01,1.88l6.1,12.51h0c.38.78.56,1.64.51,2.51l-.11,2.02c-.04.67-.81,1.01-1.33.6h0c-1.81-.74-3.36-2-4.42-3.65-.77-1.21-1.41-2.54-1.94-3.78l-3.59-9.22c-1.27-2.97-1.4-4.53-1.74-7.15l-1.51-9.62,7.02,13.92Z"/></g><g id="Layer_4"><g><path class="cls-3" d="m294.63,116.73l28.68-2.15c12.53-1.85,25.23-2.13,37.83-.85l34.94,3.55c4.91.5,9.35,3.14,12.13,7.22h0c2.55,3.74,4.06,8.08,4.39,12.6l.25,3.44c.26,3.6.01,7.21-.74,10.74l-1.48,6.97-3.28,3.67c-2.94,3.29-7.06,5.28-11.46,5.55l-34.96,2.11c-14.77.89-29.59.21-44.22-2.05l-30.18-4.46c-8.05-1.24-17.3-6.05-22.22-12.53h0c-2.69-3.54-3.91-7.98-3.41-12.4h0c.44-3.92,2.22-7.57,5.03-10.34h0c2.51-2.48,10.62-6.22,17.15-8.59,3.73-1.35,7.62-2.18,11.58-2.47Z"/><path class="cls-1" d="m403.5,126.2c-2.28-.84-4.49-1.14-7.86-2.16l-16.04-3.01-28.42-2.08c-1.48-.12-6.97.32-8.46.33l-17.51.47c-2.85-.08-7.7.54-10.52.85l-15.35,2.88c-1.05.11-2.05.45-2.91.98l-.52.32c-1.17.72-1.18,2.42-.02,3.16h0c1.11.71,2.47,1.09,3.85,1.07l20.25-.2,23.26.25c1.85-.04,3.71.02,5.56.18l29.13,1.71,27.18.99c.69.03,1.36-.26,1.82-.78h0c.42-.48.54-1.15.31-1.75-.74-1.88-1.39-2.09-3.73-3.18l-.02-.02Z"/><path class="cls-1" d="m398.86,163.31c-3.54.69-6.72.81-8.88.77l-15.42.14-33.7-.41c-1.76,0-8.21-.89-9.97-1.03l-20.65-1.92c-3.37-.17-9.05-1.16-12.37-1.69l-17.93-4.04c-1.24-.2-2.39-.6-3.37-1.18l-.59-.35c-1.33-.79-1.22-2.41.19-3.02h0c1.36-.58,2.99-.83,4.62-.7l23.9,1.9,27.49,1.72c2.19.19,4.38.29,6.57.3l34.52.82,32.17,1.34c.82.03,1.58.36,2.09.89h0c.47.49.56,1.15.24,1.7-.79,1.37-.43,1.15-2.92,2.36-1.66.81-4.05,2.29-6,2.4h0Z"/><path class="cls-1" d="m408.63,141.51l-.05-.05c-2-1.49-3.15-1.59-5.63-1.7l-40.1-1.71c-.75-.03-1.49-.04-2.24-.04l-48.62.56c-2.49.03-4.96.57-7.23,1.6h0c-1.44.65-1.49,2.67-.1,3.39h0c1.93,1,4.06,1.56,6.24,1.62l51.09,1.4,41.69.32c2.23.02,2.35.16,4.32-.31l.35-.25c.87-.66,1.16-4.17.28-4.82Z"/><path class="cls-1" d="m288.11,151.81l-5.43-1.78-.77-.25c-2.45-1.82-4.43-4.19-5.78-6.92h0c-.29-.58-.43-1.21-.43-1.85h0c0-2.69.41-5.36,1.22-7.92l.81-2.56c.22-.71-.56-1.32-1.2-.92l-4.08,2.56c-2.69,1.69-4.35,4.63-4.4,7.82l-.02,1.23c-.02,1.46.31,2.91.98,4.21l1.21,2.37c.49.95,1.09,1.84,1.8,2.65h0c1.64,1.85,3.75,3.23,6.11,3.97l.58.18"/><path class="cls-6" d="m332.17,112.94l1.79,15.46c.38,3.3.6,6.62.64,9.95l.06,4.71c.07,4.89-.34,9.78-1.23,14.59l-2.04,11.1,18.56,1.28,2.43-11.06c1.32-5.99,1.89-12.11,1.72-18.24h0c-.17-5.85-.85-11.67-2.06-17.4l-2.21-10.5-17.68.12Z"/><path class="cls-4" d="m347.23,143.21l6.83-4.22-.1-1.85-6.42,4.02c-1.7,1.07-3.87,1.06-5.57-.03l-7.4-4.71.05,2.41,7.17,4.39c1.67,1.02,3.78,1.02,5.44-.01Z"/><path class="cls-2" d="m272.95,140.24c-1.44.02-2.61,1.17-2.78,2.6l-.27,2.38c-.64,3.13,1.04,6.27,4.72,8.85h0c2.58,1.82,6.5,3.09,10.94,3.56l14.38,1.53c2.32.25,4.71.33,7.08.25l19.56-.69c1.15-.04,1.28-.83.17-.96l-20.5-2.44c-1.9-.23-3.76-.51-5.58-.85l-8.73-1.65c-2.56-.48-4.88-1.23-6.79-2.19h0c-4.19-2.1-7.15-4.7-8.58-7.54l-3.04-2.69c-.06-.11-.28-.16-.58-.16Z"/><path class="cls-2" d="m276.03,132.54h0c-.75,1.27-.87,2.83-.32,4.2h0c.59,1.47,1.71,2.66,3.14,3.35l.96.46c.45.21.96-.12.95-.61h0c-.03-1.31-.51-2.56-1.37-3.54l-.42-.48c-.81-.93-1.41-2.03-1.74-3.21h0c-.16-.56-.91-.66-1.21-.16Z"/><path class="cls-2" d="m387,121.12l5.16-.18c3.12-.11,6.24.4,9.17,1.5h0c1.48.55,3.29,1.47,4.33,2.65h0c1.42,1.62,2.99,3.18,3.29,5.27.07.45.3,1.12.26,1.57-.1,1.26-.29,2.25-.36,3.05-.1,1.28-1.94,6.26-1.94,6.26l-1.59-5.31c-.11-.36-.2-.72-.28-1.08l-.23-1.07c-.59-2.74-2.09-5.21-4.25-6.99h0s-1.05-.57-1.05-.57c-2.18-1.18-4.53-2.01-6.97-2.48l-5.67-1.08c-.92-.17-.81-1.52.12-1.55Z"/><path class="cls-2" d="m397.61,131.94l2.34,1.96c.58.49,1,1.15,1.18,1.89l.75,2.99c.02.09-.09.16-.16.09l-2.76-2.83c-.15-.15-.3-.3-.46-.44l-3.15-2.78c-.1-.09-.21-.17-.32-.25l-3.18-2.24,3.52.59c.82.14,1.58.49,2.22,1.02Z"/><polygon class="cls-5" points="293.84 132.88 293.84 132.88 293.84 132.88 293.84 132.88"/><path class="cls-5" d="m285.31,133.31c3.58-3.31,8.05-5.48,12.24-7.91,2.6-1.48,6.42-3.71,9.58-5.57-8.02,3.02-15.93,7.14-21.82,13.48Z"/><path class="cls-5" d="m285.21,142.63c6.59-5.01,13.58-9.49,20.2-14.47,5.07-3.74,9.15-6.96,14.16-10.32-12.51,6.63-23.84,15.5-34.36,24.79Z"/><path class="cls-5" d="m307.06,136.98c-3.96,2.71-7.99,5.46-11.24,9.02,3.02-2.76,6-4.34,9.65-6.76,4.49-3.05,7.8-5.89,12.28-8.68-3.85,1.62-7.23,4.11-10.69,6.42Z"/><path class="cls-5" d="m395.69,157.26c-2.23,1.86-5.04,4.43-7.98,6.74,2.3-1.33,4.34-3.04,6-4.28,4.27-3.36,8.44-6.95,11.57-11.43-3,3.51-6.22,6.14-9.59,8.97Z"/><path class="cls-5" d="m396.34,145.54c-5.56,6.93-12.22,12.79-19.78,18.46,8.83-5.14,15.4-11.34,20.72-19.35,1.49-2.19-.26.14-.94.88Z"/><path class="cls-5" d="m374.72,157.74c4.55-4.42,8.96-8.6,12.77-13.89-4.06,4.53-8.57,8.87-12.77,13.89Z"/></g></g><g id="Layer_5"><path class="cls-3" d="m294.63,215.73l28.68-2.15c12.53-1.85,25.23-2.13,37.83-.85l34.94,3.55c4.91.5,9.35,3.14,12.13,7.22h0c2.55,3.74,4.06,8.08,4.39,12.6l.25,3.44c.26,3.6.01,7.21-.74,10.74l-1.48,6.97-3.28,3.67c-2.94,3.29-7.06,5.28-11.46,5.55l-34.96,2.11c-14.77.89-29.59.21-44.22-2.05l-30.18-4.46c-8.05-1.24-17.3-6.05-22.22-12.53h0c-2.69-3.54-3.91-7.98-3.41-12.4h0c.44-3.92,2.22-7.57,5.03-10.34h0c2.51-2.48,10.62-6.22,17.15-8.59,3.73-1.35,7.62-2.18,11.58-2.47Z"/><path class="cls-1" d="m403.5,225.2c-2.28-.84-4.49-1.14-7.86-2.16l-16.04-3.01-28.42-2.08c-1.48-.12-6.97.32-8.46.33l-17.51.47c-2.85-.08-7.7.54-10.52.85l-15.35,2.88c-1.05.11-2.05.45-2.91.98l-.52.32c-1.17.72-1.18,2.42-.02,3.16h0c1.11.71,2.47,1.09,3.85,1.07l20.25-.2,23.26.25c1.85-.04,3.71.02,5.56.18l29.13,1.71,27.18.99c.69.03,1.36-.26,1.82-.78h0c.42-.48.54-1.15.31-1.75-.74-1.88-1.39-2.09-3.73-3.18l-.02-.02Z"/><path class="cls-1" d="m398.86,262.31c-3.54.69-6.72.81-8.88.77l-15.42.14-33.7-.41c-1.76,0-8.21-.89-9.97-1.03l-20.65-1.92c-3.37-.17-9.05-1.16-12.37-1.69l-17.93-4.04c-1.24-.2-2.39-.6-3.37-1.18l-.59-.35c-1.33-.79-1.22-2.41.19-3.02h0c1.36-.58,2.99-.83,4.62-.7l23.9,1.9,27.49,1.72c2.19.19,4.38.29,6.57.3l34.52.82,32.17,1.34c.82.03,1.58.36,2.09.89h0c.47.49.56,1.15.24,1.7-.79,1.37-.43,1.15-2.92,2.36-1.66.81-4.05,2.29-6,2.4h0Z"/><path class="cls-1" d="m408.63,240.51l-.05-.05c-2-1.49-3.15-1.59-5.63-1.7l-40.1-1.71c-.75-.03-1.49-.04-2.24-.04l-48.62.56c-2.49.03-4.96.57-7.23,1.6h0c-1.44.65-1.49,2.67-.1,3.39h0c1.93,1,4.06,1.56,6.24,1.62l51.09,1.4,41.69.32c2.23.02,2.35.16,4.32-.31l.35-.25c.87-.66,1.16-4.17.28-4.82Z"/><path class="cls-1" d="m288.11,250.81l-5.43-1.78-.77-.25c-2.45-1.82-4.43-4.19-5.78-6.92h0c-.29-.58-.43-1.21-.43-1.85h0c0-2.69.41-5.36,1.22-7.92l.81-2.56c.22-.71-.56-1.32-1.2-.92l-4.08,2.56c-2.69,1.69-4.35,4.63-4.4,7.82l-.02,1.23c-.02,1.46.31,2.91.98,4.21l1.21,2.37c.49.95,1.09,1.84,1.8,2.65h0c1.64,1.85,3.75,3.23,6.11,3.97l.58.18"/><path class="cls-2" d="m272.95,239.24c-1.44.02-2.61,1.17-2.78,2.6l-.27,2.38c-.64,3.13,1.04,6.27,4.72,8.85h0c2.58,1.82,6.5,3.09,10.94,3.56l14.38,1.53c2.32.25,4.71.33,7.08.25l19.56-.69c1.15-.04,1.28-.83.17-.96l-20.5-2.44c-1.9-.23-3.76-.51-5.58-.85l-8.73-1.65c-2.56-.48-4.88-1.23-6.79-2.19h0c-4.19-2.1-7.15-4.7-8.58-7.54l-3.04-2.69c-.06-.11-.28-.16-.58-.16Z"/><path class="cls-6" d="m334.32,237.32c.2,9.34-2.09,21.83-4.61,30.8l19.29,1.01c2.26-10.06,5.16-21.69,4.48-32.03l-19.16.22Z"/><path class="cls-6" d="m349.1,193.82l-9.39-10.66-10,11.85,1.42,17.62c2.43-.11,19.21-.69,19.21-.69l-1.23-18.12Z"/><path class="cls-4" d="m342.38,183.79l6.83,6.98-.1,3.06-6.42-6.65c-1.7-1.76-3.87-1.74-5.57.05l-7.4,7.78.05-3.98,7.17-7.25c1.67-1.69,3.78-1.68,5.44.02Z"/><path class="cls-5" d="m350.72,212.05c.69,8.81,2.22,17.52,2.77,26.35.99-8.9-.59-17.76-2.77-26.35Z"/><path class="cls-2" d="m276.03,231.54h0c-.75,1.27-.87,2.83-.32,4.2h0c.59,1.47,1.71,2.66,3.14,3.35l.96.46c.45.21.96-.12.95-.61h0c-.03-1.31-.51-2.56-1.37-3.54l-.42-.48c-.81-.93-1.41-2.03-1.74-3.21h0c-.16-.56-.91-.66-1.21-.16Z"/><path class="cls-2" d="m387,220.12l5.16-.18c3.12-.11,6.24.4,9.17,1.5h0c1.48.55,3.29,1.47,4.33,2.65h0c1.42,1.62,2.99,3.18,3.29,5.27.07.45.3,1.12.26,1.57-.1,1.26-.29,2.25-.36,3.05-.1,1.28-1.94,6.26-1.94,6.26l-1.59-5.31c-.11-.36-.2-.72-.28-1.08l-.23-1.07c-.59-2.74-2.09-5.21-4.25-6.99h0s-1.05-.57-1.05-.57c-2.18-1.18-4.53-2.01-6.97-2.48l-5.67-1.08c-.92-.17-.81-1.52.12-1.55Z"/><path class="cls-2" d="m397.61,230.94l2.34,1.96c.58.49,1,1.15,1.18,1.89l.75,2.99c.02.09-.09.16-.16.09l-2.76-2.83c-.15-.15-.3-.3-.46-.44l-3.15-2.78c-.1-.09-.21-.17-.32-.25l-3.18-2.24,3.52.59c.82.14,1.58.49,2.22,1.02Z"/><polygon class="cls-5" points="293.84 231.88 293.84 231.88 293.84 231.88 293.84 231.88"/><path class="cls-5" d="m285.31,232.31c3.58-3.31,8.05-5.48,12.24-7.91,2.6-1.48,6.42-3.71,9.58-5.57-8.02,3.02-15.93,7.14-21.82,13.48Z"/><path class="cls-5" d="m285.21,241.63c6.59-5.01,13.58-9.49,20.2-14.47,5.07-3.74,9.15-6.96,14.16-10.32-12.51,6.63-23.84,15.5-34.36,24.79Z"/><path class="cls-5" d="m307.06,235.98c-3.96,2.71-7.99,5.46-11.24,9.02,3.02-2.76,6-4.34,9.65-6.76,4.49-3.05,7.8-5.89,12.28-8.68-3.85,1.62-7.23,4.11-10.69,6.42Z"/><path class="cls-5" d="m395.69,256.26c-2.23,1.86-5.04,4.43-7.98,6.74,2.3-1.33,4.34-3.04,6-4.28,4.27-3.36,8.44-6.95,11.57-11.43-3,3.51-6.22,6.14-9.59,8.97Z"/><path class="cls-5" d="m396.34,244.54c-5.56,6.93-12.22,12.79-19.78,18.46,8.83-5.14,15.4-11.34,20.72-19.35,1.49-2.19-.26.14-.94.88Z"/><path class="cls-5" d="m374.72,256.74c4.55-4.42,8.96-8.6,12.77-13.89-4.06,4.53-8.57,8.87-12.77,13.89Z"/><path class="cls-5" d="m333.19,223.09c-.42-3.62-1.42-7.11-2.37-10.62.45,3.91,1.12,7.78,1.4,11.71.24,5.35,1.15,10.62,2.04,15.89-.09-5.67-.55-11.34-1.07-16.99Z"/><g><path class="cls-6" d="m163.5,178.24c2.75,7.31,4.93,14.76,6.55,22.4.42,2,7.87,2.05,8,0,.61-9.54,2.09-19.96,10.5-25.86,2.14-1.5-5.27-2.56-6.91-1.41-9.06,6.35-10.93,16.89-11.6,27.27h8c-1.62-7.64-3.8-15.09-6.55-22.4-.87-2.31-8.46-1.21-8,0h0Z"/><path class="cls-6" d="m213.16,179.75c-3.84-4.07-8.18-6.55-13.96-5.71-4.58.67-8.32,4.24-5.67,9.03,3,5.43,9.42,4.03,14,6.66,3.72,2.13,2.45,6.84.12,9.6-.98,1.16-2.35,2.78-3.8,2.28-2.38-.81-3.18-4.05-3.13-6.15.05-1.95-7.95-2.06-8,0-.3,12.37,19.11,11.47,23.81,2.86,2.65-4.87,1.04-9.04-4.04-10.92-2.98-1.1-6.68-.97-9.3-2.87-1.41-1.02-2.66-2.92-2.53-4.76.33-4.53,3.21-.96,4.79.72s8.74.34,7.71-.74h0Z"/><path class="cls-6" d="m225.38,201.62c4.66,0,4.73-2.8,0-2.8s-4.73,2.8,0,2.8h0Z"/></g></g></svg>